<?xml version="1.0" standalone="no"?>
<!DOCTYPE svg PUBLIC "-//W3C//DTD SVG 1.1//EN" "http://www.w3.org/Graphics/SVG/1.1/DTD/svg11.dtd" >
<!--
2013-9-30: Created.
-->
<svg>
<metadata>
Created by iconfont
</metadata>
<defs>

<font id="iconfont" horiz-adv-x="1024" >
  <font-face
    font-family="iconfont"
    font-weight="500"
    font-stretch="normal"
    units-per-em="1024"
    ascent="896"
    descent="-128"
  />
    <missing-glyph />
    
    <glyph glyph-name="circle" unicode="&#59211;" d="M512 300.096191m-255.045767 0a249.237 249.237 0 1 0 510.091534 0 249.237 249.237 0 1 0-510.091534 0Z"  horiz-adv-x="1024" />

    
    <glyph glyph-name="iconzhenghe60" unicode="&#59244;" d="M536.602624 814.759936c-246.197248 0-445.77792-199.581696-445.77792-445.778944 0-246.196224 199.580672-445.778944 445.77792-445.778944 246.198272 0 445.778944 199.58272 445.778944 445.778944C982.381568 615.17824 782.800896 814.759936 536.602624 814.759936zM536.602624-25.85088c-218.058752 0-394.831872 176.771072-394.831872 394.831872 0 218.059776 176.77312 394.831872 394.831872 394.831872 218.059776 0 394.832896-176.772096 394.832896-394.831872C931.43552 150.920192 754.663424-25.85088 536.602624-25.85088zM705.312768 537.691136c-12.396544 12.396544-32.495616 12.396544-44.893184 0L536.602624 413.874176 412.785664 537.691136c-12.396544 12.396544-32.495616 12.396544-44.893184 0s-12.396544-32.495616 0-44.893184l123.81696-123.81696L367.893504 245.164032c-12.396544-12.396544-12.396544-32.495616 0-44.89216s32.495616-12.396544 44.893184 0l123.81696 123.81696 123.81696-123.81696c12.396544-12.396544 32.495616-12.396544 44.893184 0s12.396544 32.495616 0 44.89216L581.495808 368.980992l123.81696 123.81696C717.710336 505.19552 717.710336 525.294592 705.312768 537.691136z"  horiz-adv-x="1024" />

    
    <glyph glyph-name="account_feedback" unicode="&#59339;" d="M890.103 57.369c0-20.567-16.612-37.278-37.015-37.278H170.425c-20.436 0-37.064 16.678-37.064 37.18V710.747c0 20.501 16.695 37.196 37.196 37.196h433.185v37.015H177.001c-44.662 0-81.001-36.273-81.001-80.869v-640.161c0-44.596 36.257-80.885 80.836-80.885h669.825c44.563 0 80.852 36.421 80.852 81.182V452.204h-37.41v-394.835zM319.835 177.279c-1.368-5.01 0.082-10.482 3.807-14.239 3.774-3.626 9.295-5.109 14.387-3.758l158.129 42.19 418.699 415.402c10.218 10.135 15.821 24.061 15.821 39.24-0.033 17.634-7.647 35.301-20.963 48.485l-39.652 39.371c-25.874 25.66-65.493 27.934-88.565 5.142L365.486 336.281l-45.651-159.002z m485.823 547.954c11.437 11.256 30.95 10.432 43.442-1.928l39.652-39.355c6.394-6.378 10.02-14.948 9.987-23.501 0-7.581-2.901-14.585-8.075-19.71l-50.166-49.754-84.379 85.071 49.539 49.177z m-75.315-74.755l84.412-85.055-319.157-316.718-85.121 84.412 319.866 317.361zM475.904 226.753l-120.685-32.4 32.17 120.203 88.515-87.803z"  horiz-adv-x="1024" />

    
    <glyph glyph-name="arrow_back" unicode="&#59345;" d="M589.988 3.576L202.561 383.957l387.427 380.355-68.882 67.632L64.377 383.957l456.728-448.013 68.883 67.632z"  horiz-adv-x="1024" />

    
    <glyph glyph-name="arrow_down" unicode="&#59346;" d="M892.745 647.71L512.364 258.867 132.009 647.71l-67.632-69.134 447.987-458.397 448.013 458.397-67.632 69.134z"  horiz-adv-x="1024" />

    
    <glyph glyph-name="arrow_left" unicode="&#59347;" d="M321.131 831.944l-53.118-54.628 382.498-393.369-382.498-393.376 53.118-54.627 435.61 448.003z"  horiz-adv-x="1024" />

    
    <glyph glyph-name="arrow_up" unicode="&#59348;" d="M960.377 189.313L512.364 647.71 64.377 189.313l67.632-69.134 380.355 388.843 380.381-388.843 67.632 69.134z"  horiz-adv-x="1024" />

    
    <glyph glyph-name="car_ic" unicode="&#59351;" d="M779.802 242.94c-35.067 0-63.496 28.978-63.496 64.754 0 35.806 28.434 64.78 63.496 64.78 35.104 0 63.537-28.975 63.537-64.78 0.001-35.78-28.436-64.754-63.537-64.754zM221.045 443.519l55.407 186.998c6.928 20.759 17.313 35.81 41.602 36.047H706.01c24.184-0.238 34.582-15.288 41.519-36.047l55.426-186.998h-581.91zM244.22 242.94c-35.062 0-63.519 28.978-63.519 64.754 0 35.806 28.457 64.78 63.519 64.78 35.063 0 63.496-28.975 63.496-64.78 0.001-35.78-28.432-64.754-63.496-64.754z m179.802 492.069h-105.16c-56.564 0-86.565-30.575-100.391-66.375L144.854 439.11C115.656 435.406 64 401.477 64 337.282l34.522-239.128h48.267v-25.022c0-94.066 112.059-92.975 112.059 0v25.022h506.3v-25.022c0-92.975 112.059-94.066 112.059 0v25.022h48.268L960 337.282c0.028 64.195-51.652 98.124-80.809 101.828l-73.595 229.525c-13.846 35.801-43.853 66.375-100.481 66.375H424.022v-0.001z"  horiz-adv-x="1024" />

    
    <glyph glyph-name="bike_ic" unicode="&#59352;" d="M249.658 368.638C147.063 368.638 64 284.359 64 180.441c0-103.917 83.063-188.134 185.658-188.134 102.624 0 185.718 84.217 185.718 188.134 0 103.918-83.094 188.197-185.718 188.197z m0-326.86c-75.533 0.205-136.626 62.127-136.812 138.662 0.185 76.617 61.277 138.534 136.812 138.695 75.593-0.161 136.718-62.078 136.874-138.695-0.156-76.534-61.281-138.456-136.874-138.662zM566.876 441.613c8.751-8.963 20.531-13.936 32.907-13.936h139.251c25.719 0 46.684 21.316 46.684 47.382 0 26.193-20.965 47.382-46.684 47.382H619.002l-85.69 87.289c-8.78 8.804-20.717 13.873-33.061 13.873-12.375 0-24.406-4.973-33.061-13.873L347.813 488.773c-8.876-8.961-13.688-20.934-13.656-33.668 0-12.606 4.966-24.577 13.875-33.542l117.155-117.677v-161.88c0-26.13 20.97-47.428 46.813-47.43 25.842 0 46.718 21.298 46.718 47.43l-0.063 181.595c0 12.7-4.968 24.832-13.811 33.73l-97.688 97.996 53.032 53.826 66.688-67.54zM637.313 599.342c47.905 0 86.687 39.464 86.687 88.207 0 48.636-38.782 88.144-86.687 88.144-47.813 0-86.656-39.508-86.656-88.144 0-48.743 38.843-88.207 86.656-88.207zM774.282 368.638c-102.28 0-185.063-84.279-185.063-188.198 0-103.917 82.783-188.134 185.063-188.134C876.845-7.693 960 76.524 960 180.441c0 103.918-83.155 188.197-185.718 188.197z m0-326.827c-75.437 0.127-136.251 62.095-136.345 138.63 0.094 76.552 60.908 138.534 136.345 138.632 75.624-0.097 136.687-62.079 136.81-138.632-0.123-76.535-61.186-138.504-136.81-138.63z"  horiz-adv-x="1024" />

    
    <glyph glyph-name="surrounding_metro" unicode="&#59353;" d="M669.344 104.679H355.642l-98.558-117.456c-12.201-14.54-33.513-16.743-48.007-4.581l-13.741 11.53c-14.313 12.01-16.101 33.443-3.825 48.073l52.438 62.493c-57.027 1.89-102.67 48.909-102.67 106.351l26.48 423.254C173.85 688.58 249.847 793.241 512 793.241c262.152 0 340.639-106.78 344.24-158.898l26.48-423.254c0-57.276-45.084-103.945-101.714-106.316l52.468-62.529c12.276-14.63 10.488-36.063-3.825-48.073l-13.741-11.53c-14.494-12.162-35.807-9.959-48.007 4.581l-98.557 117.457zM257.792 624.177l-10.592-158.9c-2.913-29.449 23.619-52.966 52.695-52.966h424.21c28.546 0 55.609 23.73 52.696 52.966l-10.592 158.899c-4.237 29.449-37.02 52.966-63.235 52.966H321.027c-25.738 0.001-59.423-22.669-63.235-52.965z m395.939-375.5c0-31.911 25.869-57.779 57.779-57.779s57.779 25.868 57.779 57.779-25.869 57.779-57.779 57.779-57.779-25.867-57.779-57.779z m-395.776-0.078c0-31.911 25.869-57.779 57.779-57.779s57.779 25.868 57.779 57.779c0 31.911-25.869 57.779-57.779 57.779s-57.779-25.868-57.779-57.779z"  horiz-adv-x="1024" />

    
    <glyph glyph-name="walk_ic" unicode="&#59354;" d="M589.65 622.691c24.241-0.337 47.598 8.91 64.789 25.654 17.191 16.742 26.764 39.565 26.556 63.309-0.634 49.409-42.045 88.959-92.493 88.339-50.449-0.622-90.831-41.178-90.198-90.588 1.251-48.447 41.864-87.001 91.346-86.714m188.304-220.658c-53.838 58.725-108.185 116.951-161.258 176.427l-6.634 5.998c-22.654 18.622-50.279 30.502-79.608 34.235-16.298 3.447-33.319 1.052-47.968-6.747a357.326 357.326 0 0 1-39.55-27.488l-41.079-30.487C349.294 515.986 296.478 479 244.171 439.767c-18.619-13.845-22.478-39.747-8.675-58.225 13.002-18.528 38.077-24.64 58.43-14.245a157.015 157.015 0 0 1 20.158 13.244l104.357 74.97c-18.881-91.462-38.018-181.425-56.389-272.138-2.423-8.268-6.892-15.822-13.013-21.99-35.721-39.484-72.208-77.968-107.42-117.702-8.622-8.148-13.493-19.377-13.493-31.112 0-11.734 4.871-22.964 13.493-31.112 9.422-9.145 22.37-13.935 35.612-13.172 13.243 0.763 25.529 7.006 33.79 17.171a8848.838 8848.838 0 0 1 125.791 136.943c6.099 7.86 10.209 17.024 11.992 26.74 7.654 35.734 14.033 71.719 21.178 109.454 68.657-66.478 117.146-150.3 140.079-242.149 0-2.999 1.531-6.247 2.551-9.247 10.717-30.987 33.681-44.981 60.727-36.985 27.046 7.997 35.212 32.487 25.515 64.724-20.608 91.288-64.5 175.973-127.577 246.148a27.004 27.004 0 0 0-5.613 7.747c-1.786 4.249-4.593 9.247-3.573 12.996 13.778 49.979 28.323 99.958 43.886 154.436 37.253-40.484 71.444-77.968 105.889-114.952 23.219-24.99 49.245-27.989 70.423-8.746 21.18 19.239 18.629 44.478-4.335 69.468"  horiz-adv-x="1024" />

    
    <glyph glyph-name="surrounding_bank" unicode="&#59355;" d="M203.792 358.709v-232.742h78.561V410.71h-78.561v-52.001zM807.84 125.968V410.71h-78.56v-52.001 0.336-233.078h78.56zM519.136 538.954c-29.676 0-53.731 23.733-53.731 53.011 0 29.278 24.055 53.011 53.731 53.011 29.676 0 53.731-23.739 53.731-53.011 0-29.278-24.055-53.011-53.731-53.011z m395.452-39.585c-17.53 11.524-396.174 284.847-396.174 284.847s-387.28-273.323-405.971-284.847c-18.684-11.517-19.852-28.806 0-36.874H914.26c18.684 8.069 17.845 25.357 0.328 36.874zM545.1 125.968V410.71h-78.567v-284.743H545.1zM124.398-4.295h772.915v83.001H124.398v-83.001z"  horiz-adv-x="1024" />

    
    <glyph glyph-name="surrounding_hospital" unicode="&#59356;" d="M589.672 699.55H436.02v-52.344h-45.157V751.505h241.521v-104.3h-42.712V699.55z m69.564-341.419H552.538V462.43h-81.077v-104.299H364.764v-79.257h106.698v-105.116h81.077V278.874h106.698v79.257z m134.392-341.636H155.643c-32.938 0-59.643 26.103-59.643 58.308V562.202c0 32.205 26.705 58.308 59.643 58.308h712.721c32.938 0 59.636-26.103 59.636-58.308v-487.399c0-32.205-26.698-58.308-59.636-58.308h-74.736z"  horiz-adv-x="1024" />

    
    <glyph glyph-name="surrounding_community" unicode="&#59357;" d="M885.704 570.408l-171.55 56.966c-7.734 7.734-20.522 7.734-28.256 0l-163.667-53.699V685.799c0 6.988-2.189 13.114-7.657 16.641l0.724 0.011-172.126 76.759a19.592 19.592 0 0 1-27.831 0L142.94 702.446l-1.498-0.011c-5.457-3.527-10.582-9.653-10.582-16.635v-681.63c0-10.935 11.958-21.18 22.894-21.18h351.543c3.616 0 6.806 1.073 9.481 2.88 3.157-1.808 6.712-2.88 10.322-2.88h351.543c10.941 0 16.497 10.244 16.497 21.18V553.767c0 6.982-1.974 13.114-7.436 16.641zM284.338 72.519h-70.345v70.345h70.345v-70.345z m0 162.434h-70.345v71.622h70.345v-71.622z m0 162.428h-70.345v70.345h70.345v-70.345z m0 163.711h-70.345v70.345h70.345v-70.345z m154.76-488.573h-70.345v70.345h70.345v-70.345z m0 162.434h-70.345v71.622h70.345v-71.622z m0 162.428h-70.345v70.345h70.345v-70.345z m0 163.711h-70.345v70.345h70.345v-70.345z m216.149-488.573h-70.345v70.345h70.345v-70.345z m0 162.434h-70.345v71.622h70.345v-71.622z m0 162.428h-70.345v70.345h70.345v-70.345z m156.038-324.862h-71.628v70.345h71.628v-70.345z m0 162.434h-71.628v71.622h71.628v-71.622z m0 162.428h-71.628v70.345h71.628v-70.345z"  horiz-adv-x="1024" />

    
    <glyph glyph-name="surrounding_food" unicode="&#59358;" d="M909.927 758.492c0.319 6.134-1.83 12.342-6.566 16.999-9.001 8.802-23.491 8.802-32.406 0-0.439-0.393-345.428-339.478-362.706-356.357-17.43 14.611-32.958 27.631-45.539 38.137a111.064 111.064 0 0 1-13.738 135.128L283.649 755.944c-8.961 8.796-23.491 8.796-32.406 0a22.237 22.237 0 0 1 0-31.849c0-0.04 0.08-0.04 0.08-0.08 0 0 97.97-96.539 97.85-96.579 8.682-8.842 8.642-22.894-0.2-31.57-8.921-8.762-23.365-8.802-32.326-0.086l-97.93 96.227-0.279-0.319c-0.04 0-0.04 0.086-0.08 0.12-8.955 8.802-23.485 8.802-32.406 0a22.215 22.215 0 0 1 0-31.889s0.08-0.04 0.08-0.08l97.697-96.426c8.835-8.796 8.835-22.967-0.086-31.73-8.875-8.716-23.205-8.762-32.206-0.2 0 0-98.369 96.187-98.369 96.227-8.948 8.796-23.485 8.796-32.439 0a22.227 22.227 0 0 1 0-31.849s131.533-128.794 166.68-162.633c35.154-33.839 94.663-39.055 137.581-13.18a49541.751 49541.751 0 0 1 38.613-44.59C345.826 260.4 197.814 115.365 184.043 100.202c-0.918-0.998-1.67-2.116-2.309-3.187-22.813-26.56-21.575-66.333 3.938-91.33 25.474-25.043 65.963-26.274 92.993-3.866 0.08 0.04 0.16 0.08 0.24 0.16 16.965 12.861 181.296 202.446 292.878 331.96 35.832-25.043 85.788-21.863 117.915 9.674 0.639 0.592 2.156 2.149 2.395 2.389 95.501 96.346 218 317.941 218 412.012 0 0.166-0.12 0.325-0.166 0.478z m-26.033-656.939c-11.15 10.951-105.773 91.017-206.052 175.254L572.86 249.216c95.222-109.64 195.547-224.655 208.167-236.997 0.033-0.04 0.073-0.08 0.153-0.12 1.677-2.109 3.466-4.145 5.455-6.088 26.911-26.394 70.467-26.394 97.258 0 26.951 26.394 26.951 69.188 0 95.548v-0.006z"  horiz-adv-x="1024" />

    
    <glyph glyph-name="surrounding_shop" unicode="&#59359;" d="M272.582 541.361h478.832C711.765 631.943 619.5 694.906 511.997 694.906S312.23 631.943 272.582 541.361z m-62.305 0C252.784 663.47 371.81 751.438 511.998 751.438s259.214-87.967 301.721-210.077h74.936c21.511 0 37.203-14.281 37.203-35.164l-27.524-128.08-62.577-323.513c0-20.883-14.484-38.042-32.357-38.042H219.448c-17.867 0-32.35 17.159-32.35 38.042l-62.577 323.513-26.379 128.08c0 20.883 18.029 35.164 39.546 35.164h72.589z m298.171-332.283c55.13 0 99.821 43.715 99.821 97.639s-44.692 97.639-99.821 97.639c-55.13 0-99.821-43.715-99.821-97.639s44.691-97.639 99.821-97.639z"  horiz-adv-x="1024" />

    
    <glyph glyph-name="surrounding_school" unicode="&#59360;" d="M493.048 249.244l-255.546 98.669v-179.178c0-13.076-1.448-32.118 19.215-46.618 58.241-37.783 356.566-99.404 522.036 6.638 12.247 11.632 21.477 26.035 21.477 39.98V352.051L538.163 249.095c-25.081-10.357-19.83-10.287-45.115 0.149zM941.211 531.42L535.57 690.453c-25.285 10.441-19.979 10.511-45.064 0.154L82.421 532.845c-25.08-10.352-24.917-27.208 0.368-37.644l96.97-37.504c42.005-17.311 101.736-40.688 103.324-39.966l210.883-81.571c25.285-10.441 19.979-10.501 45.064-0.154l402.551 157.767c25.079 10.356 24.916 27.207-0.37 37.647z"  horiz-adv-x="1024" />

    
    <glyph glyph-name="surrounding_metro1" unicode="&#59361;" d="M669.344 104.679H355.642l-98.558-117.456c-12.201-14.54-33.513-16.743-48.007-4.581l-13.741 11.53c-14.313 12.01-16.101 33.443-3.825 48.073l52.438 62.493c-57.027 1.89-102.67 48.909-102.67 106.351l26.48 423.254C173.85 688.58 249.847 793.241 512 793.241c262.152 0 340.639-106.78 344.24-158.898l26.48-423.254c0-57.276-45.084-103.945-101.714-106.316l52.468-62.529c12.276-14.63 10.488-36.063-3.825-48.073l-13.741-11.53c-14.494-12.162-35.807-9.959-48.007 4.581l-98.557 117.457zM257.792 624.177l-10.592-158.9c-2.913-29.449 23.619-52.966 52.695-52.966h424.21c28.546 0 55.609 23.73 52.696 52.966l-10.592 158.899c-4.237 29.449-37.02 52.966-63.235 52.966H321.027c-25.738 0.001-59.423-22.669-63.235-52.965z m395.939-375.5c0-31.911 25.869-57.779 57.779-57.779s57.779 25.868 57.779 57.779-25.869 57.779-57.779 57.779-57.779-25.867-57.779-57.779z m-395.776-0.078c0-31.911 25.869-57.779 57.779-57.779s57.779 25.868 57.779 57.779c0 31.911-25.869 57.779-57.779 57.779s-57.779-25.868-57.779-57.779z"  horiz-adv-x="1024" />

    
    <glyph glyph-name="checkbox_selected" unicode="&#59370;" d="M513 832C265.576 832 65 631.424 65 384s200.576-448 448-448 448 200.576 448 448S760.423 832 513 832z m295.706-281.427L440.204 182.071c-4.882-4.881-11.28-7.322-17.678-7.322s-12.796 2.441-17.678 7.322L219.294 367.626c-9.763 9.763-9.763 25.592 0 35.355 9.764 9.763 25.592 9.763 35.355 0l167.877-167.877L773.35 585.929c9.764 9.763 25.592 9.763 35.355 0 9.764-9.763 9.764-25.593 0.001-35.356z"  horiz-adv-x="1024" />

    
    <glyph glyph-name="checkbox_unselect" unicode="&#59371;" d="M513 832C265.576 832 65 631.424 65 384s200.576-448 448-448 448 200.576 448 448S760.423 832 513 832z m281.428-729.428c-36.568-36.568-79.136-65.272-126.524-85.315C618.869-3.484 566.752-14 513-14s-105.869 10.516-154.904 31.256c-47.388 20.043-89.956 48.748-126.524 85.315-36.568 36.568-65.272 79.136-85.315 126.524C125.516 278.131 115 330.248 115 384s10.516 105.869 31.256 154.904c20.043 47.388 48.748 89.956 85.315 126.524 36.568 36.568 79.136 65.272 126.524 85.315C407.131 771.484 459.248 782 513 782s105.869-10.516 154.904-31.256c47.388-20.043 89.956-48.748 126.524-85.315 36.568-36.568 65.272-79.136 85.315-126.524C900.484 489.869 911 437.752 911 384s-10.516-105.869-31.256-154.904c-20.044-47.388-48.748-89.957-85.316-126.524z"  horiz-adv-x="1024" />

    
    <glyph glyph-name="detail_air_conditioner" unicode="&#59372;" d="M947.481 486.712c0 72.027-58.598 130.625-130.625 130.625s-130.625-58.598-130.625-130.625c0-13.807 11.193-25 25-25s25 11.193 25 25c0 44.457 36.168 80.625 80.625 80.625s80.625-36.168 80.625-80.625-36.168-80.625-80.625-80.625H101.519c-13.808 0-25-11.193-25-25s11.192-25 25-25h716.964c0.455 0 0.907 0.014 1.356 0.038 70.655 1.591 127.642 59.557 127.642 130.587zM101.519 538.258h426.964c0.455 0 0.907 0.014 1.356 0.038 70.655 1.591 127.643 59.557 127.643 130.587 0 72.027-58.598 130.625-130.625 130.625S396.232 740.91 396.232 668.883c0-13.807 11.193-25 25-25s25 11.193 25 25c0 44.457 36.168 80.625 80.625 80.625s80.625-36.168 80.625-80.625-36.168-80.625-80.625-80.625H101.519c-13.808 0-25-11.193-25-25s11.192-25 25-25zM659.839 228.705a25.395 25.395 0 0 1-1.356 0.038H101.519c-13.807 0-25-11.193-25-25s11.193-25 25-25h555.338c44.457 0 80.625-36.168 80.625-80.625s-36.168-80.625-80.625-80.625-80.625 36.168-80.625 80.625c0 13.807-11.193 25-25 25s-25-11.193-25-25c0-72.027 58.598-130.625 130.625-130.625s130.625 58.598 130.625 130.625c-0.001 71.029-56.988 128.995-127.643 130.587z"  horiz-adv-x="1024" />

    
    <glyph glyph-name="detail_bathroom" unicode="&#59373;" d="M934.065 417.81h-21.771V646.002c0 96.205-78.269 174.474-174.475 174.474s-174.474-78.269-174.474-174.474c0-13.807 11.193-25 25-25s25 11.193 25 25c0 33.083 12.993 64.296 36.586 87.888s54.806 36.586 87.889 36.586 64.296-12.993 87.889-36.586c23.592-23.593 36.585-54.805 36.585-87.888V417.81H88.06c-13.807 0-25-11.193-25-25s11.193-25 25-25h21.77v-123.35c0-94.88 62.897-175.34 149.183-201.894l-23.721-65.232c-4.719-12.976 1.975-27.32 14.951-32.038a24.941 24.941 0 0 1 8.542-1.512c10.215 0 19.804 6.308 23.497 16.463l26.682 73.377c3.99-0.226 8.007-0.352 12.053-0.352h380.089c4.046 0 8.063 0.126 12.053 0.352l26.683-73.377c3.693-10.156 13.282-16.463 23.497-16.463 2.836 0 5.722 0.486 8.542 1.512 12.976 4.718 19.67 19.062 14.951 32.038l-23.721 65.232c86.286 26.553 149.183 107.013 149.183 201.894V367.81h21.771c13.807 0 25 11.193 25 25s-11.193 25-25 25z m-71.771-173.35c0-88.879-72.309-161.188-161.188-161.188H321.018c-88.879 0-161.188 72.309-161.188 161.188V367.81h702.464v-123.35zM493.642 544.776m-35.131 0a35.131 35.131 0 1 1 70.262 0 35.131 35.131 0 1 1-70.262 0ZM644.204 509.407m-35.131 0a35.131 35.131 0 1 1 70.262 0 35.131 35.131 0 1 1-70.262 0Z"  horiz-adv-x="1024" />

    
    <glyph glyph-name="detail_chest" unicode="&#59374;" d="M788.725 807.22h-553.45c-51.438 0-93.287-41.848-93.287-93.287v-614.426c0-51.438 41.849-93.287 93.287-93.287H272v-19.439c0-13.807 11.192-25 25-25s25 11.193 25 25V6.22h380v-19.439c0-13.807 11.192-25 25-25s25 11.193 25 25V6.22h36.725c51.438 0 93.287 41.849 93.287 93.287V713.933c0 51.439-41.849 93.287-93.287 93.287zM191.988 99.507V713.933c0 23.868 19.419 43.287 43.287 43.287H487v-701H235.275c-23.868 0-43.287 19.418-43.287 43.287z m640.024 0c0-23.869-19.419-43.287-43.287-43.287H537v701h251.725c23.868 0 43.287-19.418 43.287-43.287v-614.426zM417.5 503.254c-13.808 0-25-11.193-25-25V376.22c0-13.807 11.192-25 25-25s25 11.193 25 25V478.254c0 13.807-11.192 25-25 25zM606.5 503.254c-13.808 0-25-11.193-25-25V376.22c0-13.807 11.192-25 25-25s25 11.193 25 25V478.254c0 13.807-11.192 25-25 25z"  horiz-adv-x="1024" />

    
    <glyph glyph-name="detail_bed" unicode="&#59375;" d="M862.513 520.471h-1.056V639.872c0 50.178-40.822 91-91 91h-518.69c-50.37 0-91.349-40.979-91.349-91.349V520.47h-1.056c-50.957 0-92.414-41.457-92.414-92.414v-371.67c0-13.807 11.193-25 25-25s25 11.193 25 25v70.25h787.978v-70.25c0-13.807 11.193-25 25-25s25 11.193 25 25v371.67c0 50.958-41.456 92.415-92.413 92.415zM210.418 639.524c0 22.8 18.549 41.349 41.349 41.349h518.69c22.607 0 41-18.393 41-41v-119.401H210.418V639.524z m-51.055-169.053H862.514c23.387 0 42.413-19.027 42.413-42.414v-132.128H116.949V428.057c0 23.387 19.027 42.414 42.414 42.414z m-42.414-293.834v69.292h787.978v-69.292H116.949z"  horiz-adv-x="1024" />

    
    <glyph glyph-name="detail_fridge" unicode="&#59376;" d="M757.309 849.003H266.691c-42.487 0-77.053-34.566-77.053-77.052v-777.9c0-42.487 34.565-77.052 77.053-77.052h490.618c42.487 0 77.053 34.566 77.053 77.052v777.9c0 42.486-34.566 77.052-77.053 77.052z m27.053-854.953c0-14.917-12.136-27.052-27.053-27.052H266.691c-14.917 0-27.053 12.136-27.053 27.052V431.075h544.724V-5.95z m0 487.025H239.638V771.95c0 14.917 12.136 27.052 27.053 27.052h490.618c14.917 0 27.053-12.136 27.053-27.052v-290.875zM372.19 684.692c-13.808 0-25-11.193-25-25v-56.448c0-13.807 11.192-25 25-25s25 11.193 25 25v56.448c0 13.807-11.192 25-25 25zM372.19 197.218c13.808 0 25 11.193 25 25v88.705c0 13.807-11.192 25-25 25s-25-11.193-25-25v-88.705c0-13.807 11.192-25 25-25z"  horiz-adv-x="1024" />

    
    <glyph glyph-name="detail_gas" unicode="&#59377;" d="M822.154 522.138V551.68c0 51.082-41.558 92.64-92.64 92.64H294.736c-51.082 0-92.64-41.558-92.64-92.64v-29.542c-42.433-4.72-75.543-40.79-75.543-84.461v-406.142c0-46.869 38.131-85 85-85h601.143c46.869 0 85 38.131 85 85V437.677c0 43.672-33.11 79.741-75.542 84.461zM294.736 594.32h434.777c23.512 0 42.64-19.128 42.64-42.64v-29.003H252.096V551.68c0 23.512 19.128 42.64 42.64 42.64zM176.553 31.536V437.677c0 19.299 15.701 35 35 35h275.571v-476.142H211.553c-19.299 0.001-35 15.702-35 35.001z m671.143 0c0-19.299-15.701-35-35-35H537.125V472.677h275.571c19.299 0 35-15.701 35-35v-406.141zM512.068 660.278c13.807 0 25 11.193 25 25V807.464c0 13.807-11.193 25-25 25s-25-11.193-25-25v-122.186c0-13.807 11.192-25 25-25zM422.125 660.278c13.807 0 25 11.193 25 25v44.651c0 13.807-11.193 25-25 25s-25-11.193-25-25v-44.651c0-13.807 11.193-25 25-25zM602.125 660.278c13.807 0 25 11.193 25 25v44.651c0 13.807-11.193 25-25 25s-25-11.193-25-25v-44.651c0-13.807 11.193-25 25-25z"  horiz-adv-x="1024" />

    
    <glyph glyph-name="detail_microwave" unicode="&#59378;" d="M832.173 725.247H191.827c-53.387 0-96.819-43.433-96.819-96.819v-490.855c0-53.386 43.433-96.82 96.819-96.82h640.347c53.387 0 96.819 43.433 96.819 96.82V628.428c0 53.386-43.433 96.819-96.82 96.819z m46.82-587.674c0-25.816-21.003-46.82-46.819-46.82H191.827c-25.816 0-46.819 21.003-46.819 46.82V628.428c0 25.816 21.003 46.819 46.819 46.819h640.347c25.816 0 46.819-21.003 46.819-46.819v-490.855zM746.835 559.759m-31.298 0a31.298 31.298 0 1 1 62.596 0 31.298 31.298 0 1 1-62.596 0ZM746.835 454.046m-31.298 0a31.298 31.298 0 1 1 62.596 0 31.298 31.298 0 1 1-62.596 0ZM746.835 348.332m-31.298 0a31.298 31.298 0 1 1 62.596 0 31.298 31.298 0 1 1-62.596 0Z"  horiz-adv-x="1024" />

    
    <glyph glyph-name="detail_hood" unicode="&#59379;" d="M960.954 307.341c-22.711 43.722-59.504 81.127-106.403 108.171-37.993 21.909-79.823 35.395-122.421 39.632V740.632c0 42.625-34.679 77.304-77.305 77.304H367.931c-42.626 0-77.304-34.679-77.304-77.304v-285.503c-42.616-4.263-84.449-17.777-122.435-39.716-46.759-27.006-83.438-64.31-106.118-107.906-0.08-0.146-0.156-0.294-0.233-0.441l-0.062-0.117c-0.013-0.025-0.023-0.05-0.036-0.074a26.24 26.24 0 0 1-0.498-1.026l-0.057-0.126c-0.15-0.333-0.292-0.669-0.428-1.01l-0.076-0.193a24.41 24.41 0 0 1-0.339-0.928l-0.105-0.309c-0.087-0.265-0.169-0.531-0.248-0.8-0.045-0.155-0.09-0.309-0.132-0.465a27.85 27.85 0 0 1-0.312-1.281 25.343 25.343 0 0 1-0.417-2.6l-0.023-0.222c-0.035-0.359-0.062-0.717-0.082-1.076l-0.008-0.157c-0.018-0.374-0.027-0.747-0.028-1.12l-0.002-0.094 0.002-0.07c0.001-0.351 0.01-0.701 0.027-1.051 0.004-0.09 0.007-0.181 0.012-0.271 0.016-0.289 0.04-0.577 0.066-0.865 0.013-0.151 0.026-0.302 0.042-0.453 0.023-0.207 0.051-0.413 0.079-0.619 0.03-0.226 0.06-0.452 0.096-0.676 0.018-0.112 0.04-0.223 0.06-0.334 0.054-0.311 0.112-0.62 0.177-0.927l0.005-0.023a24.872 24.872 0 0 1 3.682-8.656l0.023-0.036a24.819 24.819 0 0 1 4.797-5.286l0.039-0.033c0.237-0.195 0.48-0.384 0.726-0.57 0.095-0.073 0.189-0.147 0.285-0.219 0.177-0.131 0.359-0.258 0.541-0.385 0.176-0.123 0.351-0.247 0.531-0.365 0.12-0.08 0.243-0.156 0.365-0.234 0.25-0.16 0.502-0.316 0.758-0.467l0.217-0.125a25.102 25.102 0 0 1 0.993-0.546l0.061-0.029a24.51 24.51 0 0 1 1.351-0.645c0.899-0.396 1.823-0.743 2.774-1.032 0.063-0.02 0.126-0.035 0.189-0.054 0.363-0.107 0.729-0.208 1.098-0.299 0.177-0.044 0.354-0.083 0.531-0.123a26.003 26.003 0 0 1 1.443-0.28c0.186-0.03 0.373-0.057 0.56-0.083 0.278-0.039 0.556-0.076 0.834-0.106 0.116-0.012 0.234-0.02 0.351-0.031 0.756-0.069 1.512-0.114 2.266-0.114 0.053 0 0.105 0.005 0.158 0.005H938.77c13.715 0 24.846 11.046 24.993 24.727 0.104 4.09-0.79 8.262-2.809 12.148zM367.931 767.936h286.894c15.056 0 27.305-12.249 27.305-27.304v-284.038H340.627V740.632c0 15.055 12.248 27.304 27.304 27.304zM193.198 372.114c39.056 22.557 82.856 34.479 126.666 34.479h383.21c43.736 0 87.479-11.894 126.5-34.396 24.65-14.215 45.818-31.746 62.671-51.729H130.682c16.814 19.944 37.927 37.444 62.516 51.646zM246.616 124.711c6.615 11.816 17.243 18.761 17.35 18.83l-0.192-0.121-26.301 42.523c-2.032-1.257-20.225-12.9-33.077-34.376-17.932-29.965-17.006-64.849 2.604-98.225 14.841-25.257 6.743-39.369 4.082-44.006-6.166-10.744-16.262-16.839-16.363-16.899l0.221 0.127 24.652-43.5c3.422 1.939 33.714 19.982 43.303 55.739 6.366 23.742 2.065 48.596-12.785 73.869-14.988 25.507-6.337 40.961-3.494 46.039zM523.335 124.712c6.615 11.816 17.243 18.76 17.349 18.829l-0.192-0.121-26.301 42.523c-2.032-1.257-20.225-12.9-33.077-34.376-17.931-29.965-17.006-64.849 2.605-98.225 14.84-25.257 6.742-39.369 4.082-44.006-6.166-10.744-16.262-16.839-16.363-16.899l0.221 0.127 24.652-43.5c3.422 1.939 33.714 19.982 43.302 55.739 6.367 23.742 2.065 48.595-12.785 73.869-14.987 25.508-6.336 40.961-3.493 46.04zM811.484 124.712c6.615 11.816 17.243 18.76 17.349 18.829l-0.192-0.121-26.301 42.523c-2.032-1.257-20.225-12.9-33.077-34.376-17.931-29.965-17.006-64.849 2.605-98.225 14.84-25.257 6.742-39.369 4.082-44.006-6.166-10.744-16.262-16.839-16.363-16.899l0.221 0.127 24.652-43.5c3.422 1.939 33.714 19.982 43.302 55.739 6.367 23.742 2.065 48.595-12.785 73.869-14.987 25.508-6.335 40.961-3.493 46.04z"  horiz-adv-x="1024" />

    
    <glyph glyph-name="detail_lift" unicode="&#59381;" d="M806.377 803.389H216.38c-51.438 0-93.287-41.848-93.287-93.287v-654.204c0-51.439 41.849-93.287 93.287-93.287h589.997c51.438 0 93.287 41.848 93.287 93.287V710.102c0.001 51.439-41.848 93.287-93.287 93.287zM486.379 12.611H216.38c-23.869 0-43.287 19.419-43.287 43.287V710.102c0 23.868 19.418 43.287 43.287 43.287h269.999v-740.778z m363.286 43.287c0-23.868-19.418-43.287-43.287-43.287H536.379V753.389h269.999c23.869 0 43.287-19.419 43.287-43.287v-654.204zM273.535 379.99a19.905 19.905 0 0 1 11.681-3.779c6.208 0 12.33 2.883 16.239 8.303l34.462 47.791v-160.54c0-11.046 8.954-20 20-20s20 8.954 20 20v222.47c0 0.192-0.023 0.378-0.029 0.569a20.381 20.381 0 0 1-0.056 1.105 19.221 19.221 0 0 1-0.11 0.968c-0.042 0.311-0.086 0.62-0.142 0.929-0.064 0.355-0.14 0.704-0.223 1.053a19.367 19.367 0 0 1-0.211 0.821 20.873 20.873 0 0 1-0.623 1.852 20.412 20.412 0 0 1-1.265 2.64 19.173 19.173 0 0 1-1.023 1.602 20.242 20.242 0 0 1-0.653 0.874 20.311 20.311 0 0 1-0.548 0.658 19.68 19.68 0 0 1-0.718 0.79 20.228 20.228 0 0 1-0.677 0.665c-0.234 0.22-0.469 0.439-0.715 0.649-0.282 0.242-0.575 0.47-0.87 0.697-0.15 0.115-0.286 0.241-0.44 0.353-0.076 0.055-0.156 0.097-0.232 0.15a20.321 20.321 0 0 1-1.006 0.651c-0.226 0.139-0.45 0.284-0.68 0.413-0.332 0.187-0.675 0.354-1.018 0.521-0.254 0.124-0.505 0.255-0.762 0.367-0.319 0.139-0.647 0.258-0.975 0.381-0.292 0.11-0.582 0.226-0.878 0.321-0.298 0.096-0.604 0.173-0.908 0.255-0.335 0.091-0.668 0.186-1.006 0.259-0.277 0.06-0.559 0.101-0.84 0.149-0.375 0.064-0.748 0.129-1.124 0.172-0.265 0.03-0.533 0.044-0.801 0.063a19.673 19.673 0 0 1-1.189 0.06c-0.094 0.001-0.185 0.014-0.279 0.014-0.192 0-0.378-0.023-0.57-0.029-0.369-0.011-0.736-0.025-1.104-0.056-0.326-0.027-0.647-0.067-0.969-0.11-0.311-0.042-0.62-0.086-0.929-0.142-0.355-0.064-0.705-0.14-1.053-0.223-0.275-0.065-0.548-0.134-0.821-0.211a19.6 19.6 0 0 1-1.853-0.624 20.95 20.95 0 0 1-1.807-0.813 20.223 20.223 0 0 1-2.433-1.473 18.933 18.933 0 0 1-1.531-1.201c-0.269-0.233-0.534-0.471-0.793-0.72a19.07 19.07 0 0 1-0.661-0.673c-0.222-0.235-0.442-0.471-0.654-0.719-0.241-0.28-0.468-0.571-0.693-0.865-0.115-0.151-0.243-0.288-0.355-0.444l-70.68-98.023c-6.46-8.959-4.435-21.459 4.525-27.92zM749.223 386.01c-8.958 6.46-21.459 4.435-27.92-4.524l-34.462-47.791v160.54c0 11.046-8.954 20-20 20s-20-8.954-20-20v-222.47c0-0.192 0.023-0.378 0.029-0.569 0.011-0.369 0.025-0.737 0.056-1.105 0.027-0.326 0.067-0.647 0.11-0.968 0.042-0.311 0.086-0.62 0.142-0.929 0.064-0.355 0.14-0.704 0.223-1.053 0.065-0.275 0.134-0.549 0.211-0.821a20.873 20.873 0 0 1 0.623-1.852 20.412 20.412 0 0 1 1.265-2.64 19.173 19.173 0 0 1 1.023-1.602c0.209-0.296 0.427-0.588 0.653-0.874 0.178-0.224 0.361-0.442 0.548-0.657 0.232-0.269 0.47-0.533 0.718-0.79 0.219-0.228 0.446-0.447 0.676-0.664 0.234-0.221 0.469-0.439 0.715-0.65 0.282-0.242 0.574-0.47 0.87-0.697 0.15-0.115 0.286-0.241 0.44-0.353 0.089-0.064 0.183-0.118 0.273-0.181 0.204-0.143 0.413-0.277 0.623-0.412 0.301-0.194 0.604-0.378 0.912-0.554 0.209-0.119 0.418-0.237 0.632-0.349 0.357-0.187 0.719-0.358 1.083-0.522 0.173-0.078 0.342-0.162 0.517-0.235 0.55-0.229 1.106-0.434 1.668-0.611 0.084-0.026 0.171-0.045 0.256-0.07 0.498-0.149 1-0.278 1.504-0.387 0.169-0.036 0.341-0.067 0.511-0.099 0.458-0.086 0.917-0.156 1.377-0.21 0.157-0.018 0.313-0.039 0.471-0.054 0.617-0.057 1.236-0.096 1.853-0.096 0.623 0 1.245 0.037 1.864 0.095 0.103 0.009 0.206 0.016 0.308 0.027a20.056 20.056 0 0 1 2.118 0.349 20.304 20.304 0 0 1 1.53 0.393c0.144 0.044 0.285 0.094 0.428 0.141 0.451 0.148 0.898 0.31 1.339 0.49 0.095 0.039 0.193 0.073 0.288 0.114a20.027 20.027 0 0 1 1.514 0.729c0.098 0.052 0.196 0.104 0.293 0.158 0.509 0.28 1.007 0.581 1.493 0.907l0.079 0.055a19.69 19.69 0 0 1 1.446 1.081l0.058 0.046c0.457 0.378 0.898 0.781 1.325 1.205 0.06 0.059 0.117 0.119 0.176 0.178 0.398 0.405 0.785 0.824 1.153 1.269 0.016 0.02 0.034 0.038 0.05 0.057 0.268 0.327 0.529 0.663 0.779 1.01l70.685 98.022c6.459 8.962 4.434 21.462-4.526 27.923z"  horiz-adv-x="1024" />

    
    <glyph glyph-name="detail_shower" unicode="&#59382;" d="M739.497 833.078h-7.845c-22.894 0-45.46-6.077-65.26-17.574-15.199-8.825-28.501-20.678-39.054-34.681C589.283 803.13 545.731 815.04 500.256 815.04c-67.281 0-130.369-26.034-177.643-73.308l-46.379-46.379c-6.228-6.227-9.656-14.514-9.656-23.335 0-8.821 3.429-17.108 9.655-23.335l308.615-308.615c6.227-6.227 14.514-9.656 23.334-9.656 8.821 0 17.108 3.429 23.335 9.656l46.38 46.38c47.273 47.273 73.308 110.361 73.308 177.642s-26.034 130.369-73.308 177.642a255.155 255.155 0 0 1-10.168 9.606c15.204 19.769 38.942 31.74 63.923 31.74h7.845c44.426 0 80.568-36.143 80.568-80.568v-764.328c0-13.807 11.192-25 25-25s25 11.193 25 25V702.51c0 71.995-58.573 130.568-130.568 130.568zM701.205 564.09c0-53.925-20.834-104.457-58.663-142.287l-34.359-34.359-284.574 284.573 34.359 34.359c37.829 37.83 88.361 58.663 142.287 58.663 53.925 0 104.457-20.834 142.286-58.663 37.83-37.829 58.664-88.36 58.664-142.286zM122.914 444.899l-43.782-43.782c-9.763-9.763-9.763-25.592 0-35.355 4.882-4.881 11.279-7.322 17.678-7.322s12.796 2.441 17.678 7.322l43.782 43.782c9.763 9.763 9.763 25.592 0 35.355-9.764 9.763-25.592 9.763-35.356 0zM288.49 575.119c-9.763 9.763-25.593 9.762-35.355 0l-48.633-48.632c-9.763-9.763-9.763-25.592 0-35.355a24.92 24.92 0 0 1 17.678-7.322 24.925 24.925 0 0 1 17.678 7.322l48.633 48.632c9.762 9.763 9.762 25.592-0.001 35.355zM233.849 333.965l-43.782-43.782c-9.763-9.763-9.763-25.592 0-35.355 4.882-4.881 11.279-7.322 17.678-7.322s12.796 2.441 17.678 7.322l43.782 43.782c9.763 9.763 9.763 25.592 0 35.355-9.765 9.763-25.593 9.763-35.356 0zM364.068 464.185l-48.632-48.632c-9.763-9.763-9.763-25.592 0-35.355 4.882-4.881 11.279-7.322 17.678-7.322s12.796 2.441 17.678 7.322l48.632 48.632c9.763 9.763 9.763 25.592 0 35.355-9.764 9.763-25.592 9.763-35.356 0zM340.642 227.171l-43.783-43.782c-9.763-9.763-9.763-25.592 0-35.355a24.92 24.92 0 0 1 17.678-7.323 24.925 24.925 0 0 1 17.678 7.322l43.783 43.782c9.763 9.763 9.763 25.592 0 35.355-9.762 9.764-25.592 9.763-35.356 0.001zM470.862 357.391l-48.632-48.632c-9.763-9.763-9.763-25.592 0-35.355 4.882-4.881 11.279-7.322 17.678-7.322s12.796 2.441 17.678 7.322l48.632 48.632c9.763 9.763 9.763 25.592 0 35.355-9.764 9.763-25.592 9.763-35.356 0z"  horiz-adv-x="1024" />

    
    <glyph glyph-name="detail_soft" unicode="&#59383;" d="M935.248 489.761c-24.988 17.276-55.338 24.294-85.465 19.765l-0.048-0.012c-0.659-0.229-1.228-0.394-1.784-0.516-7.603-1.669-16.05-4.065-24.249-6.978V671.816c0 57.885-47.735 104.977-106.411 104.977H306.708c-58.676 0-106.411-47.093-106.411-104.977v-172.871a210.579 210.579 0 0 1-18.771 5.703 121.085 121.085 0 0 1-3.444 0.691c-31.455 5.804-63.208-1.009-89.401-19.188-54.183-37.606-67.924-112.605-30.633-167.185l118.579-183.558c0.234-0.342 0.359-0.543 0.451-0.691 0.14-0.225 0.182-0.293 0.427-0.567l0.147-0.194c0.399-0.629 1.056-1.724 1.915-3.368 0.243-0.465 0.499-0.921 0.77-1.369l33.089-54.675-0.038-0.481c-0.052-0.661-0.077-1.28-0.077-1.893v-56.162c0-13.675 11.124-24.8 24.797-24.8s24.798 11.125 24.798 24.8V47.37H755.08v-31.362c0-13.675 11.124-24.8 24.798-24.8s24.798 11.125 24.798 24.8V71.73c0 0.724-0.032 1.456-0.095 2.176l-0.046 0.528 36.014 53.548a24.953 24.953 0 0 1 1.929 3.425c1.853 4.004 3.234 6.286 3.742 7.081l0.147 0.193c0.246 0.274 0.288 0.341 0.425 0.563 0.092 0.147 0.218 0.349 0.454 0.695l118.664 183c37.359 54.466 23.605 129.302-30.662 166.822zM252.893 671.816c0 28.881 24.142 52.377 53.816 52.377h410.583c29.674 0 53.816-23.496 53.816-52.377v-204.761c0-1.953 0.219-3.871 0.631-5.733-8.592-11.679-17.961-24.973-23.809-33.271-5.241-7.435-6.607-9.358-7.537-10.529l-61.951-90.319h-324.31l-66.918 86.51c-0.46 0.426-0.869 0.848-1.249 1.289-0.742 0.86-1.791 2.242-7.351 9.616l-0.4 0.532c-1.848 2.45-4.1 5.436-6.607 8.747l-16.486 21.311a141.001 141.001 0 0 1-1.793 2.55l-1.498 1.918a26.186 26.186 0 0 1 1.062 7.38v204.76z m672.118-320.82L806.724 168.543c-1.867-2.509-4.794-6.988-8.331-14.342l-0.107-0.187-36.982-54.99c-0.274-0.408-0.544-0.839-0.816-1.309l-0.434-0.746H257.825l-34.643 57.239c-2.603 4.896-4.661 7.952-5.937 9.667L98.996 346.948c-21.974 32.161-13.916 76.328 17.962 98.455 15.25 10.584 33.766 14.547 52.132 11.158 18.47-3.406 34.475-13.816 45.065-29.314l107.011-138.343c3.5-5.119 8.646-8.695 14.542-10.141a25.039 25.039 0 0 1 7.526-1.161h348.269a24.787 24.787 0 0 1 20.449 10.771l97.775 142.547c10.562 15.398 26.554 25.755 45.031 29.162 18.425 3.397 36.995-0.552 52.286-11.124 31.853-22.02 39.913-65.967 17.967-97.962z"  horiz-adv-x="1024" />

    
    <glyph glyph-name="detail_tv" unicode="&#59384;" d="M827.888 681.305H617.181a128.732 128.732 0 0 1-15.994 19.297l61.375 61.375c7.811 7.81 7.812 20.474 0.001 28.284-7.812 7.811-20.474 7.81-28.285 0l-66.08-66.08c-17.34 8.596-36.411 13.09-56.198 13.09s-38.858-4.494-56.198-13.09l-66.08 66.08c-7.811 7.811-20.475 7.811-28.285 0s-7.81-20.474 0.001-28.284l61.375-61.375a128.732 128.732 0 0 1-15.994-19.297H196.112c-53.387 0-96.819-43.433-96.819-96.819v-474.027c0-53.386 43.433-96.82 96.819-96.82H257v-16.757c0-13.807 11.192-25 25-25s25 11.193 25 25v16.757h410v-16.757c0-13.807 11.192-25 25-25s25 11.193 25 25v16.757h60.888c53.387 0 96.819 43.433 96.819 96.82V584.485c0 53.387-43.433 96.82-96.819 96.82z m46.819-570.847c0-25.816-21.003-46.82-46.819-46.82H196.112c-25.816 0-46.819 21.003-46.819 46.82V584.485c0 25.816 21.003 46.819 46.819 46.819h631.775c25.816 0 46.819-21.003 46.819-46.819v-474.027z"  horiz-adv-x="1024" />

    
    <glyph glyph-name="detail_washer" unicode="&#59385;" d="M805.062 814.672H216.813c-50.178 0-91-40.823-91-91v-685.084c0-50.178 40.822-91 91-91h588.248c50.178 0 91 40.822 91 91V723.672c0.001 50.177-40.822 91-90.999 91z m-588.249-50h588.248c22.607 0 41-18.393 41-41v-151.388H175.813V723.672c0 22.607 18.393 41 41 41z m588.249-767.084H216.813c-22.607 0-41 18.393-41 41V522.284h670.248v-483.696c0.001-22.607-18.392-41-40.999-41zM510.938 454.614c-105.96 0-192.165-86.205-192.165-192.165s86.205-192.165 192.165-192.165 192.165 86.205 192.165 192.165-86.206 192.165-192.165 192.165z m0-334.33c-78.39 0-142.165 63.775-142.165 142.165 0 78.39 63.775 142.165 142.165 142.165s142.165-63.775 142.165-142.165c0-78.39-63.776-142.165-142.165-142.165zM283.826 666.41m-30.049 0a30.049 30.049 0 1 1 60.098 0 30.049 30.049 0 1 1-60.098 0ZM397.108 666.41m-30.049 0a30.049 30.049 0 1 1 60.098 0 30.049 30.049 0 1 1-60.098 0Z"  horiz-adv-x="1024" />

    
    <glyph glyph-name="detail_wifi" unicode="&#59386;" d="M965.271 534.237C910.207 584.34 847.49 624.51 778.866 653.632 696.981 688.381 609.948 706 520.183 706c-95.193-0.001-187.052-19.735-273.021-58.655-71.496-32.368-135.973-76.65-191.638-131.617-5.666-5.595-8.667-13.059-8.449-21.018 0.218-7.954 3.619-15.238 9.577-20.509a28.267 28.267 0 0 1 18.79-7.115 28.51 28.51 0 0 1 20.366 8.542c50.968 51.8 110.33 93.554 176.435 124.102 79.248 36.622 164.033 55.191 252.002 55.191 82.196 0 161.865-16.29 236.798-48.419 62.559-26.823 119.681-63.763 169.783-109.794 10.116-9.294 25.62-8.974 35.298 0.73 4.966 4.979 7.607 11.594 7.437 18.626-0.17 7.01-3.114 13.463-8.29 18.173zM526.707 148.512c-24.378 0-47.138-14.228-57.985-36.246a7.714 7.714 0 0 1 1.799-9.165l49.655-43.929a11.583 11.583 0 0 1 7.698-2.913c2.99 0 5.973 1.144 8.233 3.41l45.952 46.077c2.392 2.399 2.927 6.15 1.299 9.121-11.359 20.754-33.066 33.645-56.651 33.645zM694.812 251.416c-19.191 16.581-40.719 30.27-63.985 40.685-33.595 15.04-69.441 22.666-106.544 22.666-66.379 0-129.676-24.962-178.229-70.286a21.384 21.384 0 0 1-6.769-15.89 21.504 21.504 0 0 1 7.238-15.786 21.3 21.3 0 0 1 14.16-5.381c5.264 0 10.534 1.943 14.697 5.811 40.586 37.704 93.468 58.469 148.904 58.469 52.248 0 102.914-18.789 142.666-52.907 8.412-7.221 21.176-6.69 29.056 1.21 4.249 4.261 6.466 9.92 6.242 15.934a21.581 21.581 0 0 1-7.436 15.475zM815.915 378.998c-35.732 32.231-76.252 58.378-120.433 77.715-56.706 24.816-117.097 37.399-179.498 37.399-64.336 0-126.445-13.346-184.599-39.668-45.203-20.461-86.378-48.022-122.381-81.919-5.306-4.995-8.284-12.055-8.17-19.37a26.386 26.386 0 0 1 8.878-19.312c4.948-4.377 11.195-6.555 17.426-6.555 6.506 0 12.997 2.376 17.969 7.104 31.991 30.418 68.506 55.115 108.529 73.406 51.215 23.407 105.859 35.276 162.414 35.276 55.297 0 108.825-11.362 159.099-33.771 38.648-17.227 74.155-40.451 105.535-69.029 10.362-9.438 26.237-9.049 36.138 0.881 5.126 5.14 7.844 11.967 7.652 19.224-0.19 7.199-3.23 13.812-8.559 18.619z"  horiz-adv-x="1024" />

    
    <glyph glyph-name="detail_without" unicode="&#59387;" d="M901.394 548.508c-21.287 50.328-51.755 95.521-90.56 134.326s-83.998 69.272-134.326 90.56C624.39 795.438 569.042 806.615 512 806.615s-112.39-11.177-164.508-33.221c-50.328-21.287-95.521-51.755-134.325-90.56-38.804-38.804-69.273-83.998-90.56-134.326C100.562 496.39 89.385 441.042 89.385 384s11.177-112.39 33.221-164.508c21.287-50.328 51.755-95.521 90.56-134.326 38.804-38.804 83.998-69.272 134.325-90.56C399.61-27.438 454.958-38.615 512-38.615s112.39 11.177 164.508 33.221c50.328 21.287 95.521 51.755 134.326 90.56s69.272 83.998 90.56 134.326C923.438 271.61 934.615 326.958 934.615 384s-11.177 112.39-33.221 164.508zM775.479 120.521C705.101 50.144 611.529 11.385 512 11.385s-193.101 38.759-263.479 109.136S139.385 284.471 139.385 384s38.759 193.101 109.136 263.479S412.471 756.615 512 756.615s193.101-38.759 263.479-109.136S884.615 483.529 884.615 384s-38.759-193.101-109.136-263.479zM687.634 594.989L301.011 208.366c-9.763-9.763-9.763-25.592 0-35.355 4.881-4.881 11.28-7.322 17.678-7.322s12.796 2.441 17.678 7.322L722.99 559.634c9.763 9.763 9.763 25.592 0 35.355-9.763 9.763-25.593 9.763-35.356 0z"  horiz-adv-x="1024" />

    
    <glyph glyph-name="detail_desk" unicode="&#59388;" d="M926.29 724.214H97.71c-13.807 0-25-11.193-25-25s11.193-25 25-25h37.045v-624.485c0-13.807 11.192-25 25-25s25 11.193 25 25V674.214h226.343v-577.262c0-51.923 42.242-94.165 94.165-94.165h340.356c51.923 0 94.165 42.242 94.165 94.165V678.173c6.919 4.447 11.506 12.205 11.506 21.04 0 13.808-11.193 25.001-25 25.001z m-36.506-627.263c0-24.353-19.812-44.165-44.165-44.165H505.263c-24.353 0-44.165 19.812-44.165 44.165V373.023h428.687v-276.072z m0 326.072H461.098V674.214h428.687v-251.191zM643.224 582.323h64.435c13.808 0 25 11.193 25 25s-11.192 25-25 25h-64.435c-13.807 0-25-11.193-25-25s11.193-25 25-25zM643.224 281.481h64.435c13.808 0 25 11.193 25 25s-11.192 25-25 25h-64.435c-13.807 0-25-11.193-25-25s11.193-25 25-25z"  horiz-adv-x="1024" />

    
    <glyph glyph-name="detail_lock" unicode="&#59389;" d="M804.97 523.548h-66.875v72.223c0 60.359-23.505 117.105-66.185 159.785s-99.426 66.185-159.785 66.185-117.105-23.504-159.786-66.184c-42.68-42.68-66.185-99.426-66.185-159.785v-72.223H219.28c-48.257 0-87.517-39.26-87.517-87.517v-402.257c0-48.257 39.26-87.517 87.517-87.517h585.69c48.257 0 87.517 39.26 87.517 87.517V436.032c-0.001 48.257-39.26 87.516-87.517 87.516z m-468.816 72.224c0 97.031 78.94 175.97 175.971 175.97 97.03 0 175.97-78.94 175.97-175.97v-72.223H336.154v72.223z m506.332-561.997c0-20.687-16.83-37.517-37.517-37.517H219.28c-20.687 0-37.517 16.83-37.517 37.517V436.032c0 20.687 16.83 37.517 37.517 37.517h585.69c20.687 0 37.517-16.83 37.517-37.517v-402.257zM512.125 339.969c-34.145 0-61.824-27.68-61.824-61.824 0-25.244 15.138-46.94 36.824-56.543v-63.896c0-13.807 11.193-25 25-25s25 11.193 25 25v63.896c21.686 9.603 36.824 31.299 36.824 56.543 0 34.145-27.679 61.824-61.824 61.824z"  horiz-adv-x="1024" />

    
    <glyph glyph-name="detail_atm" unicode="&#59390;" d="M512 823.553C269.63 823.553 72.447 626.371 72.447 384S269.63-55.553 512-55.553 951.553 141.629 951.553 384 754.37 823.553 512 823.553z m0-849.229c-225.896 0-409.677 183.78-409.677 409.676S286.104 793.676 512 793.676c225.909 0 409.699-183.78 409.699-409.676S737.909-25.676 512-25.676zM260.478 501L170.12 269.048h34.179l20.625 56.747h112.249l21.826-56.747h35.532L301.663 501h-41.185z m-26.562-150.99l46.423 127.538 47.383-127.538h-93.806zM392.915 476.61h74.121v-207.562h32.541V476.61h73.968V501h-180.63zM821.459 501h-26.042l-56.472-196.431L681.853 501H631.986v-231.952h31.671V473.201L719.7 269.048h37.846l52.72 191.332v-191.332h31.647V501z"  horiz-adv-x="1024" />

    
    <glyph glyph-name="detail_clear" unicode="&#59391;" d="M446.358 468.482l52.361-501.548c1.241-11.885 11.26-20.913 23.209-20.913H886.21c11.731 0 21.558 8.881 22.74 20.553l50.789 501.389c2.921 28.831-19.712 53.872-48.69 53.872H494.432c-28.68 0-51.052-24.828-48.074-53.353z m84.648-489.519a4.76 4.76 0 0 0-4.737 4.282l-49.288 486.746c-1.443 14.249 9.743 26.625 24.065 26.625h405.098c14.649 0 26.091-12.658 24.615-27.233l-48.82-482.063a9.293 9.293 0 0 0-9.246-8.357H531.006zM858.402 421.003c-3.083-82.57-71.206-148.799-154.509-148.799-83.291 0-151.415 66.228-154.5 148.799h-32.954c3.107-100.733 86.002-181.74 187.449-181.74 101.457 0 184.36 81.006 187.463 181.74h-32.949zM423.839 39.839c-3.575 88.717-70.019 160.804-157.985 171.404l-5.146 0.616V700.263l3.244 1.61c7.099 3.53 11.507 10.577 11.507 18.384v94.52a7.201 7.201 0 0 1-7.202 7.202h-48.121a7.203 7.203 0 0 1-7.203-7.203v-94.518c0-7.813 4.41-14.854 11.503-18.384l3.25-1.61v-488.391l-5.156-0.616c-88.063-10.533-154.581-82.632-158.155-171.416l-0.366-3.451v-33.995c0-28.977 23.491-52.468 52.468-52.468h255.262c29.07 0 52.636 23.566 52.636 52.636v31.656h-0.314l-0.222 5.62z m-326.899 0.125c0 79.683 63.274 139.777 147.178 139.777 83.896 0 147.166-60.094 147.166-139.777l0.05-35.459c0.01-11.922-9.652-21.592-21.574-21.592H118.58c-11.905 0-21.56 9.644-21.574 21.549l-0.066 35.502z m272.82-57.051H97.03h294.322H369.76z"  horiz-adv-x="1024" />

    
    <glyph glyph-name="detail_community" unicode="&#59392;" d="M610.96 289.834a335.606 335.606 0 0 1-54.59 30.495l-7.367 3.25 6.669 4.487c66.918 44.971 106.869 119.959 106.869 200.593 0 64.562-25.149 125.261-70.815 170.915-45.663 45.649-106.379 70.789-170.964 70.789-64.578 0-125.277-25.14-170.914-70.79-45.649-45.649-70.79-106.348-70.79-170.914 0-80.669 39.942-155.657 106.843-200.592l6.67-4.488-7.368-3.25a335.447 335.447 0 0 1-54.587-30.494c-29.39-20.209-55.245-44.787-76.844-73.051-45.029-58.854-68.83-129.233-68.83-203.529 0-8.61 7.011-15.616 15.628-15.616h640.41c8.617 0 15.628 7.005 15.628 15.616 0 74.273-23.792 144.652-68.806 203.53-21.674 28.312-47.527 52.889-76.842 73.049z m-263.384 29.937c0.404 6.562-3.396 12.716-9.457 15.313-77.653 33.233-127.828 109.216-127.828 193.574 0 116.055 94.417 210.472 210.472 210.472 116.097 0 210.548-94.417 210.548-210.472 0-84.358-50.176-160.34-127.827-193.573-6.09-2.598-9.891-8.755-9.459-15.313 0.403-6.566 4.922-12.21 11.248-14.045C627.888 270.365 716.06 161.011 724.678 33.61l0.329-4.739H116.544l0.329 4.743c8.618 127.393 96.8 236.746 219.428 272.113 6.312 1.815 10.843 7.456 11.275 14.044zM879.958 294.33c-28.26 36.958-65.679 66.958-108.213 86.756l-6.932 3.224 6.239 4.418c55.005 38.914 87.845 102.418 87.845 169.876 0 55.642-21.667 107.938-61.008 147.253-39.32 39.333-91.625 60.996-147.278 60.996-8.604 0-15.603-7.005-15.603-15.616s7-15.615 15.603-15.615c97.628 0 177.055-79.41 177.055-177.018 0-70.936-42.191-134.822-107.485-162.757-6.091-2.598-9.892-8.756-9.459-15.314 0.403-6.582 4.924-12.226 11.248-14.045 102.141-29.446 176.5-120.486 185.034-226.538l0.381-4.794H802.433c-8.604 0-15.603-7.005-15.603-15.616s7-15.616 15.603-15.616h121.021c8.604 0 15.603 7.005 15.603 15.616 0.001 63.811-20.435 124.252-59.099 174.79z"  horiz-adv-x="1024" />

    
    <glyph glyph-name="detail_delivery" unicode="&#59393;" d="M514.409 821.553L98.827 631.46v-455.34l404.752-229.673 421.594 272.466V632.936L514.409 821.553z m1.359-31.65L871 628l-55.92-24.792v0.441l-14.153-6.456-364.646 157.61 78.127 35.727 1.36-0.627z m-113.607-50.856l364.331-157.473-4.932-2.338-91.973-41.954-362.74 158.173 95.314 43.592z m281.297-228.078l81.023 38.746 22.599 10.35v-120.671l-103.622-55.349V510.969zM125.073 196.578l-0.77 413.457L503.43 436.993l0.149-456.198-378.506 215.783z m30.787 431.973l116.229 51.513 365.877-159.541L519.5 463.5 155.86 628.551z m744.171-392.976l-1.869-2.881L534.34 1.009l-0.013-10.914V1l0.013 0.009 0.539 437.017 120.579 59.315v-159.995l159.622 85.261V572.883l84.951 38.152v-375.46z"  horiz-adv-x="1024" />

    
    <glyph glyph-name="detail_consult" unicode="&#59394;" d="M611.441-40.759l3.11 0.393c76.979 9.723 134.489 40.638 170.93 91.888 24.34 34.232 32.309 68.158 34.893 85.334l0.294 1.953 1.636 1.106c10.749 7.267 20.812 15.88 29.91 25.6 32.341 34.557 50.152 80.448 50.152 129.22-0.001 44.964-15.434 88.16-43.454 121.629l-1.05 1.253V518.416c0 41.697-8.236 82.226-24.48 120.463-15.672 36.893-38.086 70.067-66.62 98.602-28.524 28.525-61.698 50.939-98.601 66.62-38.235 16.244-78.765 24.48-120.462 24.48H478.9c-41.698 0-82.228-8.236-120.463-24.48-36.901-15.68-70.075-38.095-98.601-66.62-28.527-28.527-50.941-61.701-66.621-98.602-16.244-38.235-24.479-78.75-24.479-120.42l-0.431-101.919-1.021-1.238c-27.451-33.299-42.569-76.118-42.569-120.57 0-48.774 17.81-94.666 50.149-129.219 32.531-34.759 75.842-53.901 121.956-53.901 19.017 0 37.707 3.282 55.552 9.754 17.485 6.342 29.234 23.192 29.234 41.928V426.167c0 18.74-11.748 35.589-29.233 41.927a162.449 162.449 0 0 1-55.553 9.754c-38.672 0-61.93-7.161-88.88-27.363l-7.252-5.437 0.462 79.167c0 76.317 28.254 145.691 79.558 195.317 50.837 49.175 121.309 76.257 198.433 76.257h68.798c77.164 0 147.84-27.167 199.007-76.496 51.682-49.825 80.145-119.288 80.145-195.593v-78.377l-7.176 5.309c-26.819 19.84-51.118 27.216-89.655 27.216a162.422 162.422 0 0 1-55.552-9.754c-17.486-6.337-29.233-23.187-29.233-41.927v-262.873c0-18.736 11.748-35.585 29.233-41.928a162.468 162.468 0 0 1 55.552-9.754c16.276 0 32.38 2.403 47.863 7.143l8.444 2.585-2.872-8.351c-5.474-15.92-13.07-30.772-22.578-44.145-31.046-43.662-80.22-70.292-146.155-79.151l-3.61-0.485-1.227 3.43c-2.687 7.514-9.81 12.562-17.726 12.562h-12.945c-10.386 0-18.836-8.45-18.836-18.836v-25.948c0-10.386 8.45-18.836 18.836-18.836h12.945c8.656 0 16.365 6.144 18.332 14.608l0.71 3.053zM294.49 447.048c15.554 0 30.834-2.683 45.417-7.974 8.262-2.99 13.815-10.997 13.815-19.922v-248.845c0-8.92-5.552-16.926-13.816-19.923a132.778 132.778 0 0 0-45.417-7.972c-78.241 0-141.895 68.33-141.895 152.318 0.001 83.989 63.655 152.318 141.896 152.318zM732.16 140.88a134.086 134.086 0 0 0-45.875 8.054c-8.329 3.02-13.926 11.091-13.926 20.084V420.443c0 8.997 5.596 17.068 13.926 20.085a134.154 134.154 0 0 0 45.875 8.053c79.025 0 143.317-69.017 143.317-153.85 0-84.834-64.292-153.851-143.317-153.851z"  horiz-adv-x="1024" />

    
    <glyph glyph-name="detail_maintain" unicode="&#59395;" d="M746.707-8.579c9.924-9.902 34.526-29.149 56.488-31.112 21.832-2.083 42.486 4.591 59.106 18.495 16.598 13.849 26.805 33.348 28.746 54.896 1.723 19.269-4.275 39.825-16.445 56.401l-0.589 0.84c-35.878 53.075-108.331 138.026-215.376 252.497l-5.54 5.921 5.365 6.085c24.776 28.146 40.065 53.609 47.415 65.845 1.505 2.541 3.293 5.442 3.904 6.347 6.39 9.171 18.19 26.129 9.64 48.877-3.969 10.611-11.865 21.658-24.842 34.787l-5.998 6.074 214.263 232.18-21.199 19.564-214.851-232.835-6.499 5.213c-14.766 11.81-30.796 15.649-49.073 11.57-14.286-3.173-29.662-11.254-48.353-25.452-9.771-7.743-22.464-18.528-38.081-32.312l-6.347-5.605-29.509 29.913 2.857 5.725c12.323 24.722 19.149 51.374 20.305 79.215C516.5 712.281 432.422 803.513 324.702 807.918c-25.649 0.981-51.516-2.955-75.681-11.876l-20.218-7.481 135.049-146.15-72.519-67.023L154.43 723.524l-9.596-17.666c-14.373-26.401-22.268-55.103-23.511-85.321-2.137-52.105 16.205-101.974 51.647-140.436 35.442-38.451 83.642-60.807 135.747-62.933 24.34-1.036 48.877 2.541 71.865 10.48l5.998 2.072 22.835-28.898-5.954-5.616c-101.025-95.191-226.15-218.178-252.148-250.872-27.917-35.06-8.855-72.846 5.125-87.928 5.801-6.619 55.965-63.479 84.711-80.272 20.698-12.137 42.137-16.685 62.617-12.977 16.641 2.999 32.366 11.592 44.275 24.188 52.083 48.571 117.906 124.918 196.03 227.317l6.914 9.04 7.132-8.844c80.61-99.585 138.08-168.244 170.839-204.067l6.63-7.241-0.567-0.436 11.688-11.693zM545.661 475.269c14.351 12.617 25.976 22.486 34.656 29.4l0.174 0.131c33.937 25.692 49.204 24.253 61.81 14.177 29.226-23.402 45.627-40.611 50.12-52.595 2.726-7.317 0.72-12.181-6.26-22.214-1.352-1.941-2.792-4.351-4.776-7.634-7.285-12.137-20.393-33.958-41.592-58.626l-6.456-7.503-6.805 7.186c-29.815 31.461-57.819 60.512-81.374 84.743l-6.543 6.728 7.046 6.207z m-228.833-29.443c-2.29 0-4.624 0.055-6.936 0.142-91.865 3.762-163.511 81.537-159.76 173.38 0.545 13.435 2.683 26.717 6.347 39.487l4.384 15.245L272.16 553.666c9.335-10.087 26.478-10.742 36.576-1.439l76.837 71.014c5.082 4.678 8.026 11.069 8.288 17.993 0.284 6.914-2.159 13.511-6.848 18.582L279.598 776.065l17.426 2.05a175.898 175.898 0 0 0 26.478 1.003c44.449-1.821 85.54-20.883 115.747-53.664 30.207-32.781 45.845-75.311 44.013-119.727-3.664-89.673-76.772-159.901-166.434-159.901z m211.275-204.569c-80.48-106.03-147.677-184.362-199.738-232.813l-1.069-1.091c-4.471-4.831-17.514-16.565-37.688-16.565-9.706 0-21.069 2.715-33.937 10.229-21.221 12.421-63.184 57.939-77.579 74.438-2.137 2.475-7.546 9.193-10.491 18.266-3.839 11.876-1.788 22.563 6.238 32.661 22.225 27.917 132.78 137.862 246.455 245.092l7.066 6.674 6.063-7.612c25.54-32.17 58.888-74.002 94.525-118.277l4.384-5.442-4.229-5.56zM413.622 442.336l8.462 5.431a196.299 196.299 0 0 1 29.858 23.555 194.13 194.13 0 0 1 14.809 15.812l6.325 7.535 6.892-7.001c68.55-69.607 297.928-305.168 370.992-414.153l3.381-4.995c6.107-10.447 8.899-22.017 7.983-32.246-1.243-13.86-7.808-26.412-18.495-35.343-9.444-7.895-21.134-12.116-33.326-12.116-1.57 0-3.162 0.065-4.733 0.207-8.593 0.774-20.872 8.157-29.487 14.798l-13.958 13.391 0.872 0.774-349.575 424.351z"  horiz-adv-x="1024" />

    
    <glyph glyph-name="detail_market" unicode="&#59396;" d="M815.923-14.573c44.878 0 81.38 36.502 81.38 81.356 0 44.866-36.502 81.38-81.38 81.38l-464.393-0.024c-27.029 1.096-48.093 23.048-48.093 49.992 0 27.151 22.086 49.59 49.262 50.016h0.024l440.7-1.169 0.998 0.037c18.117 1.12 33.166 12.857 37.451 29.209l86.007 361.012c2.8 10.885 0.39 22.293-6.575 31.315-7.719 10.057-20.309 16.059-33.677 16.059h-611.18l-0.438 1.705-23.572 96.259H120.66c-8.645 0-15.682-7.037-15.682-15.67 0-8.632 7.037-15.658 15.682-15.658h97.208l0.438-1.705L334.07 277.173l-2.119-0.584c-35.236-9.655-59.854-41.92-59.854-78.458 0-25.045 11.323-48.336 31.072-63.909l2.24-1.765-2.24-1.765c-19.748-15.56-31.072-38.852-31.072-63.909 0-44.854 36.502-81.356 81.356-81.356 44.878 0 81.38 36.502 81.38 81.356 0 16.729-5.065 32.825-14.659 46.522l-2.484 3.531h334.02l-2.484-3.531c-9.57-13.673-14.635-29.769-14.635-46.522 0.001-44.855 36.478-81.356 81.332-81.356z m0 131.409c27.614 0 50.065-22.451 50.065-50.053 0-27.589-22.451-50.029-50.065-50.029-27.589 0-50.016 22.439-50.016 50.029 0 27.601 22.427 50.053 50.016 50.053z m-541.78 536.447h603.485c4.334 0 7.427-1.972 8.888-3.835 1.631-2.155 1.169-3.872 1.023-4.432l-85.958-360.915c-0.974-3.056-4.456-5.382-8.571-5.783l-427.234 1.12-0.438 1.705-91.195 372.14z m79.311-636.529c-27.589 0-50.016 22.439-50.016 50.029 0 26.944 21.063 48.909 47.947 50.004l2.094-0.024 0.877 0.049c27.151-0.56 49.14-22.999 49.14-50.029-0.002-27.59-22.453-50.029-50.042-50.029z"  horiz-adv-x="1024" />

    
    <glyph glyph-name="detail_move" unicode="&#59397;" d="M211.639 557.5L88.675 446.766A74.588 74.588 0 0 1 64 391.34v-162.013c0-30.483 24.711-55.194 55.194-55.194h34.945c0.432 0 0.783-0.348 0.788-0.78l0.002-0.164c0.549-55.615 40.96-105.62 96.313-111.031 62.929-6.151 116.691 43.462 117.345 105.276l0.066 6.699 52.39 0.044H654.38c0.432 0 0.783-0.348 0.788-0.78l0.002-0.216c0.549-55.627 40.981-105.635 96.348-111.027 62.938-6.129 116.679 43.5 117.321 105.324l0.066 6.699h11.866c43.757 0 79.229 35.472 79.229 79.229V600.637c0 58.388-47.333 105.721-105.721 105.721H487.915c-58.309 0-105.578-47.269-105.578-105.578v-30.1c0-0.436 0.436 0 0 0l-138.42-0.789a48.227 48.227 0 0 1-32.278-12.391z m125.007-390.253c-0.819-45.742-43.282-81.873-90.469-72.038-34.823 7.258-58.685 39.812-59.31 75.378l-0.048 2.745a0.787 0.787 0 0 0 0.787 0.801h149.162l-0.122-6.886z m44.902 38.826s-178.166 0.22-253.06 0.528c-18.045 0.074-32.529 14.739-32.506 32.784l0.18 140.444a69.15 69.15 0 0 0 22.885 51.304l104.702 94.253a48.894 48.894 0 0 0 32.711 12.555h125.088c0.436 0 0.789-0.353 0.789-0.789l-0.353-331.078m454.914-38.783c-0.781-45.761-43.265-81.913-90.469-72.085-34.827 7.251-58.696 39.804-59.321 75.373l-0.049 2.796a0.787 0.787 0 0 0 0.788 0.801H837.02l-0.122-6.885zM494.03 674.418h354.018c44.183 0 80-35.817 80-80v-340.229c0-26.549-21.522-48.071-48.071-48.071h-465.7V594.665c0.001 44.046 35.707 79.753 79.753 79.753z"  horiz-adv-x="1024" />

    
    <glyph glyph-name="detail_regularbus1" unicode="&#59398;" d="M299.991 287.665c-35.026 0-63.495-26.073-63.495-58.123s28.468-58.123 63.495-58.123c35.025 0 63.494 26.074 63.494 58.123s-28.468 58.123-63.494 58.123z m0-89.713c-18.397 0-33.393 14.167-33.393 31.59 0 17.423 14.995 31.602 33.393 31.602 18.396 0 33.392-14.178 33.392-31.602s-14.995-31.59-33.392-31.59zM729.947 287.665c-35.003 0-63.473-26.073-63.473-58.123s28.469-58.123 63.473-58.123c35.026 0 63.495 26.074 63.495 58.123s-28.469 58.123-63.495 58.123z m0-89.713c-18.396 0-33.392 14.167-33.392 31.59 0 17.423 14.996 31.602 33.392 31.602 18.42 0 33.415-14.178 33.415-31.602s-14.995-31.59-33.415-31.59zM778.422 636.902H245.578c-8.581 0-15.562-6.173-15.562-13.761v-224.3c0-7.588 6.981-13.761 15.562-13.761h532.844c8.568 0 15.54 6.173 15.54 13.761v224.3c-0.001 7.588-6.972 13.761-15.54 13.761z m-15.541-224.289H261.163V609.381h501.718v-196.768zM775.336 758.813l-1.303 0.449v-0.003C710.357 781.451 622.211 792.7 512 792.7c-111.041 0-199.64-11.401-263.336-33.887-70.375-24.831-107.573-63.439-107.573-111.65v-482.474c0-48.046 37.101-89.937 88.218-99.608l6.513-1.229v-52.671c0-19.785 17.657-35.881 39.361-35.881h47.354c21.715 0 39.382 16.096 39.382 35.881v51.836h300.16v-51.836c0-19.785 17.657-35.881 39.361-35.881h47.354c21.715 0 39.382 16.096 39.382 35.881v52.671l6.512 1.229c51.118 9.638 88.219 51.529 88.219 99.608V647.164c0.002 48.189-37.196 86.797-107.571 111.649zM330.532 3.197h-63.343v59.831h63.343v-59.831z m426.279 0h-63.365v59.831h63.365v-59.831z m94.71 161.492c0-40.679-35.451-73.774-79.026-73.774h-520.99c-43.587 0-79.047 33.095-79.047 73.774V647.175c0 36.329 29.54 65.174 87.798 85.734 59.208 20.865 146.26 31.894 251.745 31.894 105.535 0 192.579-11.028 251.722-31.893 58.259-20.561 87.798-49.406 87.798-85.734v-482.487z"  horiz-adv-x="1024" />

    
    <glyph glyph-name="detail_smartlock" unicode="&#59399;" d="M741.058 503.27h-5.716v88.962c0 126.111-98.273 222.143-228.596 223.376h-2.583c-132.525-1.234-236.336-99.353-236.336-223.376v-90.308l-4.881-0.702c-68.448-9.925-120.064-69.268-120.064-138.037v-270.698c0-77.249 62.831-140.096 140.06-140.096h458.116c77.23 0 140.061 62.847 140.061 140.096V363.186c-0.001 77.242-62.832 140.084-140.061 140.084z m-442.977 0v88.962c0 107.594 91.081 192.402 207.348 193.075 113.824-0.625 199.658-83.63 199.658-193.075v-88.962H298.081z m442.977-520.565H282.942c-60.547 0-109.806 49.249-109.806 109.783V363.186c0 60.534 49.259 109.783 109.806 109.783h458.116c60.547 0 109.806-49.249 109.806-109.783v-270.698c0-60.535-49.259-109.783-109.806-109.783zM511.998 329.17c-46.418 0-84.183-37.766-84.183-84.186a83.65 83.65 0 0 1 20.268-54.566c12.542-14.561 29.8-24.48 48.639-27.966-0.002-0.049-0.004-0.1-0.004-0.15v-41.341c0-8.425 6.854-15.279 15.279-15.279 8.427 0 15.282 6.854 15.282 15.279v41.341c0 0.051-0.001 0.102-0.004 0.151 18.838 3.487 36.095 13.406 48.637 27.966a83.646 83.646 0 0 1 20.271 54.566c0 46.419-37.765 84.185-84.185 84.185z m0-30.562c29.568 0 53.624-24.055 53.624-53.623 0-29.567-24.055-53.621-53.624-53.621-29.567 0-53.621 24.054-53.621 53.621 0 29.568 24.055 53.623 53.621 53.623z"  horiz-adv-x="1024" />

    
    <glyph glyph-name="detail_serversman" unicode="&#59400;" d="M453.015 408.695c0-32.576 26.408-58.983 58.985-58.983s58.985 26.406 58.985 58.983c0 32.576-26.408 58.985-58.985 58.985s-58.985-26.408-58.985-58.985z m88.476 0c0-16.288-13.203-29.491-29.491-29.491s-29.491 13.203-29.491 29.491 13.203 29.493 29.491 29.493c16.288 0.001 29.491-13.205 29.491-29.493zM880.293 603.703l1.268-0.876c-3.845 2.967-10.11 7.155-18.044 11.334-11.58 6.099-23.233 10.217-34.714 11.353a61.987 61.987 0 0 1-6.088 0.307 14.745 14.745 0 0 1-12.626-7.132c-9.711-16.099-9.711-16.099-48.549-80.496-48.549-80.498-48.549-80.498-106.809-177.092L547.922 184.007c-20.488-33.969-30.069-49.86-36.069-59.806l-35.581 57.624-106.207 172.004-106.207 172.002-48.276 78.183a14.747 14.747 0 0 1-12.546 6.997c-5.301 0-11.017-0.678-17.137-1.924-6.086-1.237-12.434-3.007-18.903-5.168a217.318 217.318 0 0 1-12.647-4.673 150.447 150.447 0 0 1-5.229-2.213c-27.68-10.118-50.01-42.589-50.01-73.283v-471.944c0-32.45 26.452-58.949 58.978-58.949h707.824c32.656 0 58.978 26.356 58.978 58.949V523.75c0 29.424-19.522 64.48-44.597 79.953z m15.106-551.897c0-16.313-13.128-29.456-29.487-29.456H158.088c-16.227 0-29.487 13.281-29.487 29.456V523.75c0 18.409 14.692 39.771 31.686 46.008 1.703 0.727 3.129 1.342 5.135 2.155a188.982 188.982 0 0 0 10.922 4.036c5.41 1.806 10.633 3.261 15.433 4.238 1.38 0.281 2.325 0.233 3.595 0.426 6.225-10.08 12.275-19.881 43.392-70.277l106.207-172.004L451.178 166.33l48.274-78.183c5.798-9.389 19.476-9.318 25.176 0.132l48.549 80.496L679.984 345.87l106.809 177.092c31.121 51.599 37.31 61.864 43.534 72.181 6.067-1.237 12.596-3.467 19.445-7.075a114.872 114.872 0 0 0 10.175-6.061c1.802-1.205 3.039-2.098 3.589-2.524l1.268-0.878c16.362-10.097 30.594-35.651 30.594-54.856v-471.943zM295.542 534.972c3.209 0 6.502 0.588 9.761 1.781l202.598 74.393 190.014-74.04c8.434-3.243 17.17-2.554 23.89 2.05 6.787 4.637 10.685 12.684 10.685 22.059V748.541c0 9.223-3.864 17.237-10.618 21.958-6.687 4.738-15.524 5.628-24.26 2.486L509.16 704.943 305.034 773.59c-8.535 2.822-17.237 1.781-23.823-2.99-6.67-4.788-10.484-12.836-10.484-22.059v-187.326c0-9.139 3.898-17.12 10.719-21.874 4.133-2.89 9.005-4.369 14.096-4.369z m213.955 140.839l195.441 70.461-0.067-182.336-196.667 76.644-209.956-79.366-1.966 186.284 213.215-71.687z"  horiz-adv-x="1024" />

    
    <glyph glyph-name="detail_storagekey" unicode="&#59401;" d="M302 150.136l223.72 227.89c2.615 2.664 4.055 6.211 4.055 9.988 0 3.776-1.44 7.323-4.055 9.988a13.691 13.691 0 0 1-9.842 4.136c-3.72 0-7.211-1.469-9.829-4.136l-223.721-227.89c-2.621-2.671-4.063-6.218-4.063-9.987s1.443-7.316 4.061-9.986c2.513-2.566 6.094-4.038 9.841-4.038 3.729 0.004 7.313 1.475 9.833 4.035zM727.605 519.29c22.171 0 42.991 8.767 58.628 24.687 15.626 15.921 24.232 37.122 24.232 59.696 0 22.565-8.606 43.761-24.232 59.683-15.645 15.928-36.465 24.7-58.628 24.7-22.161 0-42.982-8.772-58.628-24.7-15.626-15.923-24.232-37.123-24.232-59.695 0-22.565 8.606-43.761 24.232-59.683 15.625-15.92 36.446-24.688 58.628-24.688z m-55.084 84.383c0 15.009 5.728 29.111 16.129 39.708 10.388 10.584 24.222 16.413 38.955 16.413 14.733 0 28.568-5.829 38.955-16.413 10.401-10.597 16.129-24.699 16.129-39.708 0-15.009-5.728-29.111-16.129-39.708-10.387-10.584-24.222-16.413-38.955-16.413-14.733 0-28.568 5.829-38.955 16.413-10.401 10.596-16.129 24.698-16.129 39.708zM848.434 726.721c-45.717 46.582-106.513 72.237-171.187 72.237s-125.47-25.654-171.187-72.237c-70.797-72.098-90.809-179.036-50.987-272.435l1.291-3.05-347.311-353.793c-2.569-2.618-4.051-6.243-4.064-9.946l-0.211-104.109c0.11-3.924 1.515-7.371 4.064-9.968 2.239-2.281 5.19-3.724 8.31-4.064l0.411-0.045 0.224 0.096 1.514-0.187 180.176-0.177c3.728 0 7.224 1.469 9.84 4.134 2.606 2.642 4.052 6.151 4.08 9.895l17.091 84.113h82.63c7.668 0 13.906 6.342 13.906 14.136v84.004h82.448c7.661 0 13.895 6.342 13.895 14.137v92.296l54.605 55.627 2.96-1.3c30.594-13.541 62.995-20.408 96.303-20.408 64.609 0 125.408 25.694 171.199 72.35 45.648 46.486 70.788 108.404 70.788 174.348s-25.139 127.86-70.788 174.346zM249.25 96.402c2.615 2.664 4.055 6.213 4.055 9.994 0 3.781-1.441 7.33-4.058 9.996-2.628 2.665-6.123 4.131-9.842 4.131h-0.012a13.676 13.676 0 0 1-9.815-4.134l-96.93-98.741 0.116 63.957 1.399 1.417 348.804 355.316c4.231 4.31 5.276 10.861 2.6 16.302-41.362 84.189-25.226 185.502 40.152 252.106 40.477 41.231 94.29 63.937 151.528 63.937 57.229 0 111.039-22.706 151.516-63.937 40.486-41.24 62.782-96.064 62.782-154.372 0-58.321-22.296-113.145-62.782-154.373-65.378-66.625-164.818-83.065-247.442-40.907a13.755 13.755 0 0 1-16.057-2.641l-65.633-66.85c-2.584-2.632-4.065-6.276-4.065-10v-84.005h-82.448c-7.662 0-13.895-6.342-13.895-14.137v-84.004h-82.449c-7.625 0-13.836-6.284-13.894-14.029l-17.091-84.098-133.64 0.171 97.101 98.901z"  horiz-adv-x="1024" />

    
    <glyph glyph-name="detail_taxi" unicode="&#59402;" d="M270.62 417.646h482.74c8.138 0 15.479 3.835 20.14 10.522 5.12 7.338 6.281 16.873 3.107 25.507l0.001-0.003-47.297 131.247c-4.911 13.354-19.552 23.045-34.812 23.045H329.5c-14.638 0-29.623-10.682-34.857-24.849l-47.24-128.747c-3.189-8.708-1.95-18.74 3.234-26.182 4.692-6.697 11.975-10.54 19.983-10.54z m57.849 164.251l0.203 0.018 365.826 0.062c3.63 0 7.789-2.156 9.372-4.136l1.038-1.841 47.701-132.366H271.152l47.964 130.695c1.379 3.4 5.855 7.009 9.353 7.568zM945.493 464.472c0 31.681-26.026 56.498-59.252 56.498h-46.41l-36.884 95.488a357.693 357.693 0 0 0-2.64 7.169c-9.326 26.027-22.099 61.673-76.129 61.673h-82.504l-32.083 64.8c-4.962 9.528-13.634 22.196-31.57 22.196H445.979c-19.979 0-28.504-15.79-31.718-21.743L380.7 685.299h-80.898c-48.484 0-72.532-52.676-78.748-68.82l-36.894-95.51h-46.41c-33.22 0-59.242-24.817-59.242-56.498 0-29.292 21.974-52.894 52.249-56.119l8.047-0.855-6.827-18.831c-10.216-26.585-18.219-71.583-18.219-102.442v-218.676c0-39.615 31.849-71.844 70.995-71.844s70.994 32.229 70.994 71.844v21.438h505.671v-21.438c0-38.943 34.727-71.844 75.831-71.844 41.099 0 75.82 32.9 75.82 71.844V286.224c0 28.798-8.648 73.844-19.692 102.557l-7.474 18.685 8.199 0.978c29.778 3.591 51.391 27.154 51.391 56.028z m-89.749-36.214c-2.426-3.587-2.913-8.107-1.306-12.088l14.755-36.874c9.696-25.226 17.889-67.848 17.889-93.073v-218.676c0-23.999-23.752-45.855-49.833-45.855-26.086 0-49.843 21.856-49.843 45.855v34.432c0 7.165-5.829 12.994-12.993 12.994h-531.66c-7.165 0-12.994-5.829-12.994-12.994v-34.432c0-25.285-20.19-45.855-45.007-45.855s-45.007 20.571-45.007 45.855V286.224c0 27.242 7.596 69.993 16.59 93.363l13.356 36.97a12.91 12.91 0 0 1-1.578 11.856 12.973 12.973 0 0 1-10.637 5.559H137.75c-16.525 0-33.254 10.476-33.254 30.499 0 20.03 16.729 30.51 33.254 30.51h55.318c5.334 0 10.205 3.341 12.122 8.313l40.106 103.826c9.252 24.076 29.082 52.191 54.516 52.191h78.276c2.412 0 4.791 0.703 6.878 2.032l1.883 1.19 2.181-0.229c5.813 0.083 10.408 2.59 12.604 6.878l35.711 69.412c1.79 3.358 4.5 8.436 9.446 7.712l132.606 0.322 1.608-1.063c1.686-1.121 3.513-3.557 5.427-7.232l33.689-68.03c1.607-3.291 4.649-5.74 8.295-6.703l2.497-1.289c1.675-1.377 4.441-3.001 8.173-3.001h85.101c33.343 0 41.633-16.437 51.326-43.509l0.057-0.157c1.014-2.833 2.062-5.763 3.132-8.524l40.107-103.836c1.918-4.967 6.785-8.304 12.111-8.304h55.319c16.53 0 33.264-10.476 33.264-30.499 0-20.03-16.733-30.51-33.264-30.51h-19.737a12.963 12.963 0 0 1-10.758-5.713zM775.645 349.659c-32.666 0-59.242-26.576-59.242-59.242s26.576-59.241 59.242-59.241c32.671 0 59.25 26.575 59.25 59.241s-26.579 59.242-59.25 59.242z m0-92.495c-18.336 0-33.254 14.917-33.254 33.253s14.918 33.254 33.254 33.254c18.342 0 33.264-14.917 33.264-33.254 0-18.335-14.922-33.253-33.264-33.253zM248.345 349.659c-32.672 0-59.252-26.576-59.252-59.242s26.58-59.241 59.252-59.241c32.666 0 59.241 26.575 59.241 59.241s-26.575 59.242-59.241 59.242z m0-92.495c-18.342 0-33.264 14.917-33.264 33.253s14.922 33.254 33.264 33.254 33.264-14.917 33.264-33.254c0-18.335-14.922-33.253-33.264-33.253z"  horiz-adv-x="1024" />

    
    <glyph glyph-name="detail_utilities-" unicode="&#59403;" d="M795.614 491.819L541.708 818.569a35.955 35.955 0 0 1-29.23 15.124h-0.069c-11.78 0-22.819-5.774-29.045-14.777L228.138 491.241c-73.341-105.95-83.895-244.463-27.517-361.488 54.665-113.472 160.962-186.2 284.386-194.543 8.91-0.602 17.913-0.903 26.962-0.903s18.029 0.301 26.916 0.903c123.377 8.332 229.698 81.013 284.432 194.416 56.423 116.966 46.008 255.479-27.703 362.193z m-0.047-348.805C745.717 39.713 649-26.477 536.801-34.056a371.146 371.146 0 0 0-49.712 0c-112.222 7.591-208.938 73.827-258.72 177.186-52.35 108.67-42.954 232.255 24.578 329.874L508.173 800.656c1.342 1.944 3.217 2.233 4.235 2.233-0.278 0.023 2.847-0.255 4.212-2.21l254.137-327.062c67.95-98.394 77.207-221.98 24.81-330.603zM644.58 364.924H539.139l22.056 137.286c1.828 10.357-3.379 20.25-12.96 24.601-9.628 4.374-20.412 1.782-27.471-6.955l-158.88-220.902c-5.578-6.874-6.688-16.108-2.893-24.092 3.819-7.973 11.641-12.926 20.482-12.926h110.973L469.94 133.432c-1.828-10.357 3.379-20.25 12.937-24.613 3.078-1.389 6.272-2.083 9.419-2.083 6.712 0 13.284 3.101 18.098 9.061l152.052 212.491c5.323 6.839 6.341 15.888 2.592 23.734-3.795 7.961-11.617 12.902-20.458 12.902zM497.874 143.083l18.885 118.286a22.642 22.642 0 0 1-4.976 18.515 22.638 22.638 0 0 1-17.381 8.112h-108.31l147.146 204.599-20.412-127.103c-1.157-6.654 0.648-13.423 4.976-18.573 4.281-5.126 10.6-8.054 17.288-8.054h102.872L497.874 143.083z"  horiz-adv-x="1024" />

    
    <glyph glyph-name="nav_list" unicode="&#59407;" d="M296.402 644.486H915.5v74.333H296.402v-74.333z m0-297.616H915.5v74.332H296.402v-74.332z m0-297.617v74.333H915.5v-74.333H296.402zM110.576 718.818h111.171v-74.404H110.576v74.404z m0-297.616h111.171v-74.404H110.576v74.404z m0-297.616h111.171v-74.404H110.576v74.404z"  horiz-adv-x="1024" />

    
    <glyph glyph-name="nav_detele" unicode="&#59408;" d="M718.694-32.237H305.299c-48.887 0-88.557 39.924-88.557 89.169V502.918c0 17.662 13.833 29.742 29.518 29.742 15.689 0 29.522-12.08 29.522-29.742v-445.984c0-15.763 13.857-29.713 29.518-29.713h413.395c15.684 0 29.547 13.95 29.547 29.713V501.998c0 39.032 59.039 39.032 59.039 0v-445.064c0-49.247-39.675-89.171-88.587-89.171zM334.85 711.057c0 15.798 13.833 29.748 29.517 29.748h296.202c15.684 0 28.605-12.087 28.605-29.748v-59.48H334.85v59.48z m528.86-59.48H748.242v59.485c0 49.246-39.705 89.175-87.675 89.175H364.366c-48.91 0-88.586-39.929-88.586-89.175v-59.485H160.311c-37.849 0-37.849-59.432 0-59.432H863.71c37.82 0 37.82 59.432 0 59.432zM393.888 175.88V502.918c0 38.112 59.068 38.112 59.068 0V175.88c0.001-38.116-59.068-38.116-59.068 0z m177.177 0V502.918c0 38.112 59.04 38.112 59.04 0V175.88c0-38.116-59.04-38.116-59.04 0z"  horiz-adv-x="1024" />

    
    <glyph glyph-name="nav_search" unicode="&#59410;" d="M485.232 105.73c-84.184 0-163.33 33.599-222.859 94.606-59.528 61.01-92.312 142.124-92.312 228.403s32.783 167.392 92.312 228.401 138.675 94.608 222.859 94.608c84.185 0 163.332-33.599 222.86-94.608 59.527-61.009 92.311-142.123 92.311-228.401s-32.783-167.392-92.311-228.403c-59.528-61.007-138.675-94.606-222.86-94.606m424.519-99.295L760.485 159.414c32.016 34.332 57.359 73.818 75.387 117.501 19.853 48.105 29.919 99.187 29.919 151.826 0 52.637-10.067 103.718-29.919 151.825-19.17 46.448-46.604 88.156-81.544 123.963-34.939 35.809-75.633 63.925-120.954 83.571-46.938 20.348-96.78 30.665-148.142 30.665-51.36 0-101.201-10.317-148.141-30.665-45.32-19.645-86.017-47.763-120.955-83.571-34.94-35.809-62.374-77.516-81.543-123.963-19.854-48.106-29.921-99.187-29.921-151.825 0-52.639 10.067-103.719 29.921-151.826 19.169-46.448 46.604-88.155 81.543-123.962 34.94-35.81 75.635-63.925 120.955-83.572 46.938-20.346 96.78-30.663 148.141-30.663 51.362 0 101.203 10.317 148.142 30.663a376.569 376.569 0 0 1 77.987 45.608l152.156-155.937c6.383-6.543 14.751-9.815 23.119-9.815 8.366 0 16.733 3.272 23.117 9.815 12.766 13.084 12.766 34.299-0.002 47.383"  horiz-adv-x="1024" />

    
    <glyph glyph-name="nav_setup" unicode="&#59411;" d="M918.9 465.132c-4.499 23.768-18.718 39.009-36.065 38.621h-3.619c-59.587 0-108.069 48.482-108.069 108.068 0 19.636 9.337 41.174 9.403 41.332 9.206 20.718 2.124 46.132-16.47 59.105l-1.026 0.72-103.918 57.732-1.089 0.475c-6.16 2.677-12.918 4.033-20.091 4.033-14.789 0-29.307-5.91-38.813-15.776-12.692-13.101-52.697-47.091-84.973-47.091-32.58 0-72.831 34.678-85.565 48.01-9.559 10.072-24.179 16.085-39.122 16.085-7.031 0-13.663-1.309-19.724-3.892l-1.12-0.475-107.591-59.101-1.056-0.732c-18.642-12.951-25.753-38.361-16.565-59.046 0.099-0.215 9.427-21.748 9.427-41.378 0-59.587-48.481-108.068-108.071-108.068h-3.614c-17.374 0.409-31.572-14.856-36.069-38.621-0.355-1.881-8.695-46.395-8.695-81.466 0-35.067 8.343-79.576 8.695-81.457 4.445-23.47 18.341-38.633 35.414-38.633 0.209 0 0.431 0.005 0.653 0.013h3.614c59.59 0 108.072-48.484 108.072-108.073 0-19.636-9.334-41.174-9.405-41.329-9.197-20.706-2.133-46.119 16.423-59.113l1.016-0.707 101.948-57.013 1.076-0.468c6.147-2.702 12.875-4.067 20.01-4.067 14.971 0 29.567 6.146 39.035 16.443 11.951 12.987 53.563 50.072 86.871 50.072 33.54 0 74.515-36.872 87.447-51.051 9.491-10.474 24.189-16.721 39.307-16.729h0.005c6.993 0 13.598 1.324 19.646 3.929l1.1 0.477 105.675 58.406 1.04 0.73c18.605 12.961 25.701 38.375 16.522 59.052-0.095 0.214-9.423 21.742-9.423 41.37 0 59.589 48.481 108.072 108.069 108.072h3.611c17.353-0.354 31.572 14.854 36.066 38.62 0.359 1.88 8.701 46.391 8.701 81.464 0.001 35.068-8.34 79.577-8.693 81.457z m-47.914-152.814c-82.772-4.295-148.789-72.988-148.789-156.809 0-28.023 10.896-54.896 13.28-60.43l-98.73-54.567c-0.049-0.004-0.101-0.004-0.159-0.004-1.4 0-2.739 0.524-3.208 0.833-1.774 1.942-16.056 17.276-36.661 32.572-30.709 22.807-59.946 34.367-86.89 34.367-26.694 0-55.709-11.344-86.239-33.722-20.489-15.014-34.708-30.07-36.488-31.979-0.472-0.304-1.789-0.814-3.18-0.814-0.081 0-0.153 0-0.214 0.008l-95.219 53.243c2.338 5.424 13.31 32.372 13.31 60.498 0 83.819-66.017 152.509-148.782 156.809-1.195 6.596-7.661 43.583-7.661 71.339 0 27.763 6.467 64.764 7.654 71.346 82.774 4.299 148.789 72.992 148.789 156.807 0 27.977-10.853 54.802-13.269 60.406l100.605 55.257a5.91 5.91 0 0 0 0.347 0.01c1.667 0 3.236-0.622 3.751-0.972 1.635-1.706 15.778-16.259 36.129-30.76 30.129-21.473 58.663-32.364 84.807-32.364 25.897 0 54.203 10.681 84.14 31.74 20.226 14.225 34.301 28.502 35.932 30.177 0.514 0.346 2.059 0.951 3.713 0.951 0.159 0 0.296-0.01 0.408-0.015l97.127-53.962c-2.362-5.495-13.291-32.399-13.291-60.467 0-83.815 66.018-152.508 148.789-156.807 1.19-6.598 7.657-43.587 7.657-71.346-0.001-27.76-6.468-64.766-7.658-71.345zM510.177 528.13c-79.355 0-143.917-64.563-143.917-143.919 0-79.357 64.561-143.921 143.917-143.921 79.358 0 143.925 64.564 143.925 143.921S589.535 528.13 510.177 528.13z m0-238.885c-52.362 0-94.961 42.601-94.961 94.969 0 52.363 42.598 94.964 94.961 94.964 52.371 0 94.974-42.601 94.974-94.964 0-52.368-42.606-94.969-94.974-94.969z"  horiz-adv-x="1024" />

    
    <glyph glyph-name="call_right" unicode="&#59412;" d="M874.843 207.391c-4.375 20.898-14.886 38.425-29.598 49.353-8.752 6.502-22.108 13.555-88.485 28.209-33.974 7.5-69.802 14.32-88.135 17.718a58.908 58.908 0 0 1-10.708 0.984h-0.014c-15.554 0-30.222-6.027-41.294-16.973l-43.648-43.147c-41.522 17.381-81.908 44.802-117.521 79.899-38.113 37.562-69.001 82.285-89.72 129.806l49.105 49.624c14.69 14.841 20.416 36.584 14.939 56.739-4.528 16.663-13.51 49.159-22.785 79.602-17.671 57.998-24.695 70.13-30.375 77.585-15.993 20.988-40.685 32.545-69.53 32.545-9.116 0-18.604-1.15-28.202-3.419-17.427-4.119-44.953-15.934-69.939-36.74-34.119-28.412-55.068-66.413-60.584-109.895-3.348-26.382-1.25-56.445 6.236-89.353 7.066-31.059 18.716-63.816 34.628-97.362 16.093-33.927 36.042-67.583 59.292-100.034 24.437-34.106 52.008-66.132 81.946-95.188 60.767-58.969 120.6-105.652 177.84-138.752 60.442-34.953 118.276-54.897 171.896-59.279 5.269-0.43 10.558-0.647 15.726-0.647 48.469 0 92.802 18.827 128.207 54.447 27.911 28.081 43.713 60.054 48.764 78.902 4.98 18.562 5.657 37.713 1.959 55.376z m-41.138-44.877c-6.548-24.435-49.794-103.284-137.788-103.284-4.045 0-8.187 0.167-12.422 0.513-96.356 7.875-208.431 73.794-324.79 186.711-116.353 112.92-181.179 260.496-170.11 347.722 9.947 78.418 80.314 107.702 99.613 112.263 6.366 1.505 12.732 2.331 18.87 2.331 14.823 0 28.315-4.821 37.262-16.562 10.548-13.846 37.594-111.275 46.282-143.242a18.19 18.19 0 0 0-4.628-17.569l-55.526-56.112c-7.579-7.66-9.873-19.108-5.801-29.085 46.768-114.545 143.55-207.908 247.455-245.893a18.1 18.1 0 0 1 6.217-1.101c4.712 0 9.338 1.837 12.806 5.266l53.982 53.363a18.19 18.19 0 0 0 16.106 4.953c33.302-6.172 144.842-27.476 159.823-38.606 13.836-10.278 19.503-36.104 12.649-61.668z"  horiz-adv-x="1024" />

    
    <glyph glyph-name="focus_ic" unicode="&#59413;" d="M857.58 354.465c32.467 40.49 63.1 78.719 63.1 152.739 0 119.67-97.359 217.029-217.029 217.029-55.898 0-109.003-21.215-149.533-59.736-3.031-2.862-16.26-16.189-40.447-40.749l-1.411-1.433-41.917 41.72c-40.518 38.811-93.796 60.198-149.993 60.198-119.67 0-217.029-97.359-217.029-217.029 0-69.86 35.295-122.731 64.904-154.783l271.083-273.846c23.775-23.745 46.876-34.809 72.692-34.809 25.845 0 48.981 11.098 72.81 34.925L855.796 352.47l1.784 1.995z m-35.347 29.486l-270.027-272.81c-18.978-18.945-31.455-21.374-40.206-21.374-8.738 0-21.192 2.418-40.101 21.271L201.503 384.19c-14.964 16.305-26.905 33.64-35.543 51.579-11.042 22.932-16.64 46.965-16.64 71.435 0 94.306 76.724 171.029 171.029 171.029 44.113 0 85.973-16.736 117.869-47.127l74.369-74.017 33.859 34.381c31.683 32.173 37.997 38.39 39.241 39.568l1.499-1.334-1.378 1.449c31.941 30.359 73.792 47.079 117.842 47.079 94.306 0 171.029-76.724 171.029-171.029 0-57.873-23.018-86.582-52.158-122.93l-0.288-0.322z"  horiz-adv-x="1024" />

    
    <glyph glyph-name="focused_ic" unicode="&#59415;" d="M555.41 55.624a111.017 111.017 0 0 1 6.562 4.046c7.653 5.086 15.124 11.308 22.838 19.021L855.795 352.47l1.784 1.994c4.983 6.213 10.134 12.637 15.02 19.014 23.262 30.357 48.081 68.23 48.081 133.726 0 46.938-14.812 91.65-42.836 129.303-19.808 26.614-45.82 48.681-75.227 63.815-30.829 15.866-64.126 23.911-98.967 23.911-35.608 0-70.917-8.809-102.11-25.474a217.904 217.904 0 0 1-47.423-34.264c-3.03-2.86-16.259-16.188-40.446-40.748l-1.411-1.433-41.917 41.72a223.188 223.188 0 0 1-3.812 3.564 214.509 214.509 0 0 1-5.742 5.042 218.527 218.527 0 0 1-6.206 5.109 210.863 210.863 0 0 1-4.119 3.173c-37.695 28.334-82.687 43.31-130.114 43.31-63.795 0-124.142-28.024-165.566-76.886-33.187-39.146-51.463-88.916-51.463-140.144 0-43.078 13.225-84.356 39.309-122.69 0.926-1.36 1.857-2.701 2.794-4.023 6.823-9.633 14.494-19.076 22.802-28.069l271.083-273.846c12.077-12.062 23.866-20.722 36.033-26.464 11.898-5.615 23.889-8.345 36.659-8.345 12.777 0 24.775 2.733 36.68 8.356a100.065 100.065 0 0 1 4.506 2.272c0.743 0.402 1.484 0.812 2.223 1.231z"  horiz-adv-x="1024" />

    
    <glyph glyph-name="close_ic" unicode="&#59416;" d="M928 727.264L856.21 800 511.888 456.209 167.79 798.724 96 725.988 439.569 384 96 40.736 167.79-32l344.32 343.792 344.1-342.516L928 42.012 584.431 384z"  horiz-adv-x="1024" />

    
    <glyph glyph-name="filter_sort" unicode="&#59419;" d="M399.374 803.846c-0.006 0.183-0.008 0.367-0.018 0.549-0.01 0.175-0.027 0.35-0.04 0.525a27.837 27.837 0 0 1-1.558 7.412 26.108 26.108 0 0 1-0.392 1.019c-0.038 0.095-0.073 0.191-0.112 0.285-0.109 0.263-0.227 0.52-0.344 0.778-0.076 0.168-0.148 0.338-0.228 0.505-0.087 0.183-0.181 0.362-0.272 0.543-0.119 0.237-0.237 0.475-0.363 0.709-0.058 0.107-0.12 0.211-0.179 0.317a26.61 26.61 0 0 1-0.516 0.896l-0.061 0.097a27.85 27.85 0 0 1-4.699 5.774c-0.135 0.126-0.266 0.257-0.402 0.38-0.133 0.121-0.273 0.236-0.409 0.354-0.222 0.193-0.444 0.388-0.672 0.574l-0.067 0.058c-0.098 0.079-0.199 0.151-0.297 0.229a27.697 27.697 0 0 1-0.75 0.578c-0.131 0.097-0.265 0.188-0.396 0.282a29.616 29.616 0 0 1-0.742 0.514c-0.148 0.099-0.299 0.192-0.449 0.288-0.237 0.151-0.474 0.3-0.715 0.444-0.167 0.099-0.335 0.194-0.503 0.289a27.174 27.174 0 0 1-0.688 0.38 31.855 31.855 0 0 1-1.221 0.611 30.264 30.264 0 0 1-0.586 0.265 26.15 26.15 0 0 1-2.571 0.987 25.055 25.055 0 0 1-1.323 0.397 25.116 25.116 0 0 1-1.348 0.332 28.868 28.868 0 0 1-0.65 0.138 31.188 31.188 0 0 1-0.732 0.13c-0.203 0.034-0.406 0.069-0.611 0.099a31.697 31.697 0 0 1-0.806 0.103c-0.184 0.021-0.367 0.044-0.552 0.062a29.277 29.277 0 0 1-0.889 0.067c-0.164 0.011-0.327 0.024-0.492 0.032-0.32 0.015-0.639 0.02-0.959 0.024-0.121 0.001-0.241 0.009-0.362 0.009l-0.084-0.002c-0.309-0.001-0.616-0.012-0.924-0.023-0.167-0.006-0.333-0.007-0.499-0.016-0.209-0.011-0.417-0.032-0.625-0.047-2.5-0.188-4.909-0.702-7.183-1.504l-0.153-0.052c-0.312-0.112-0.619-0.233-0.926-0.356-0.126-0.05-0.253-0.097-0.378-0.149-0.233-0.097-0.462-0.202-0.692-0.305-0.197-0.088-0.395-0.174-0.591-0.268-0.154-0.074-0.306-0.153-0.458-0.229-0.266-0.133-0.531-0.265-0.793-0.406-0.078-0.042-0.154-0.088-0.231-0.131-0.329-0.182-0.657-0.367-0.98-0.563l-0.013-0.008a27.877 27.877 0 0 1-5.873-4.773c-0.117-0.124-0.237-0.245-0.352-0.372-0.123-0.135-0.24-0.278-0.36-0.416-0.192-0.22-0.384-0.44-0.569-0.667l-0.058-0.067L71.054 477.242c-9.744-12.007-7.91-29.641 4.097-39.386a27.884 27.884 0 0 1 17.628-6.26c8.146 0 16.225 3.538 21.758 10.356l228.862 281.994v-760.721c0-15.464 12.536-28 28-28s28 12.536 28 28V802.881l-0.002 0.089c-0.002 0.292-0.013 0.584-0.023 0.876zM948.605 328.251c-12.008 9.743-29.641 7.911-39.386-4.097L680.357 42.16V802.881c0 15.464-12.536 28-28 28s-28-12.536-28-28v-839.654l0.002-0.089c0.001-0.292 0.013-0.584 0.022-0.876 0.006-0.183 0.008-0.367 0.018-0.549 0.01-0.175 0.027-0.35 0.04-0.525a27.837 27.837 0 0 1 1.558-7.412c0.123-0.343 0.256-0.682 0.392-1.019 0.038-0.095 0.073-0.191 0.112-0.285 0.109-0.263 0.227-0.52 0.344-0.778 0.076-0.168 0.148-0.338 0.229-0.505 0.087-0.183 0.181-0.362 0.271-0.543 0.119-0.237 0.237-0.475 0.363-0.709 0.058-0.107 0.12-0.211 0.179-0.317 0.167-0.301 0.337-0.601 0.516-0.896l0.061-0.097a27.883 27.883 0 0 1 4.699-5.774c0.135-0.126 0.266-0.257 0.402-0.38 0.133-0.121 0.272-0.236 0.409-0.354 0.222-0.193 0.443-0.388 0.672-0.574l0.067-0.058c0.034-0.027 0.07-0.05 0.104-0.077 1.2-0.966 2.48-1.833 3.831-2.593 0.07-0.04 0.139-0.082 0.209-0.12a27.92 27.92 0 0 1 2.242-1.104c0.627-0.276 1.266-0.53 1.915-0.76 0.116-0.041 0.232-0.079 0.348-0.118 0.666-0.226 1.34-0.435 2.027-0.611l0.088-0.02a27.61 27.61 0 0 1 1.985-0.419c0.129-0.022 0.257-0.048 0.386-0.069 0.65-0.105 1.309-0.187 1.973-0.247 0.158-0.015 0.316-0.025 0.476-0.036 0.647-0.047 1.3-0.079 1.959-0.082l0.087-0.003c0.102 0 0.203 0.007 0.304 0.008 0.401 0.004 0.801 0.012 1.197 0.032 0.084 0.005 0.168 0.014 0.252 0.02a27.63 27.63 0 0 1 1.262 0.103l0.19 0.024c0.44 0.05 0.878 0.109 1.312 0.179 0.058 0.009 0.114 0.021 0.172 0.031 0.439 0.074 0.875 0.157 1.308 0.251l0.194 0.045c0.421 0.095 0.838 0.198 1.251 0.312 0.083 0.022 0.165 0.047 0.248 0.07a26.825 26.825 0 0 1 2.526 0.851l0.384 0.151c0.313 0.128 0.624 0.264 0.933 0.404 0.153 0.069 0.308 0.136 0.46 0.208 0.271 0.128 0.536 0.265 0.802 0.401 0.18 0.092 0.361 0.18 0.539 0.276 0.183 0.099 0.36 0.206 0.54 0.309 0.521 0.296 1.034 0.61 1.538 0.942 0.097 0.064 0.195 0.124 0.291 0.189 0.271 0.183 0.534 0.375 0.799 0.568 0.124 0.09 0.249 0.179 0.371 0.271 0.247 0.187 0.491 0.38 0.733 0.577a26.238 26.238 0 0 1 1.074 0.913c0.16 0.144 0.316 0.291 0.474 0.437 0.19 0.179 0.381 0.356 0.567 0.541 0.232 0.23 0.458 0.468 0.683 0.707 0.106 0.113 0.217 0.222 0.321 0.337 0.337 0.37 0.663 0.751 0.98 1.139l0.053 0.062 278.604 343.283c9.741 12.003 7.907 29.637-4.1 39.382z"  horiz-adv-x="1024" />

    
    <glyph glyph-name="map_location" unicode="&#59427;" d="M927.828 415.965h-83.49C829.265 574.772 702.907 701.132 544.1 716.203V800.082C544.1 817.71 529.81 832 512.182 832s-31.916-14.29-31.916-31.918v-83.879c-158.809-15.071-285.167-141.431-300.24-300.238H96.174c-17.628 0-31.918-14.29-31.918-31.918s14.29-31.918 31.918-31.918h83.851c15.073-158.807 141.431-285.167 300.24-300.238v-83.974c0-17.628 14.288-31.916 31.916-31.916s31.918 14.288 31.918 31.916V51.89c158.807 15.071 285.165 141.431 300.238 300.238h83.49c17.628 0 31.916 14.29 31.916 31.918s-14.287 31.919-31.915 31.919zM512.182 102.59c-155.444 0-281.457 126.013-281.457 281.457s126.013 281.457 281.457 281.457S793.639 539.49 793.639 384.046 667.626 102.59 512.182 102.59zM547.001 444.354a69.634 69.634 0 0 1-69.637 0 69.633 69.633 0 0 1-34.821-60.307c0-38.459 31.18-69.639 69.639-69.639s69.639 31.18 69.639 69.639a69.635 69.635 0 0 1-34.82 60.307z"  horiz-adv-x="1024" />

    
    <glyph glyph-name="publictraffic_ic" unicode="&#59433;" d="M512 797.975c-198.307 0-360.558-21.765-360.558-174.283v-435.797c0-39.21 18.028-74.101 45.07-95.863v-78.42c0-26.14 18.028-43.585 45.07-43.585h45.07c27.042 0 45.07 17.445 45.07 43.585v43.585H692.28v-43.585c0-26.14 18.028-43.585 45.07-43.585h45.07c27.042 0 45.07 17.445 45.07 43.585v78.42c27.042 21.821 45.07 56.653 45.07 95.863V623.691C872.558 776.21 710.307 797.975 512 797.975zM309.186 144.309c-36.055 0-67.605 30.515-67.605 65.348s31.55 65.35 67.605 65.35 67.605-30.517 67.605-65.35-31.55-65.348-67.605-65.348z m405.628 0c-36.055 0-67.605 30.515-67.605 65.348s31.55 65.35 67.605 65.35c36.055 0 67.605-30.517 67.605-65.35s-31.55-65.348-67.605-65.348z m67.605 261.454H241.581V623.691h540.837v-217.928z"  horiz-adv-x="1024" />

    
    <glyph glyph-name="search_history" unicode="&#59441;" d="M512 803.39625001C280.37374999 803.39625001 92.60374999 615.6262500099999 92.60374999 384S280.37374999-35.39625001000002 512-35.39625001000002c231.62625001 0 419.39625001 187.77 419.39625001 419.39625001S743.62625001 803.39625001 512 803.39625001z m262.2909375-681.68718751c-34.081875-34.081875-73.7559375-60.834375-117.920625-79.5140625C610.67 22.865625000000023 562.0971875 13.065000000000055 512 13.065000000000055s-98.67 9.800625-144.3703125 29.13c-44.1646875 18.680625-83.83875001 45.433125-117.920625 79.5140625-34.081875 34.081875-60.834375 73.7559375-79.5140625 117.920625C150.865625 285.33000000000004 141.065 333.9028125 141.065 384s9.800625 98.67 29.13 144.3703125c18.680625 44.1646875 45.433125 83.83875001 79.5140625 117.920625 34.081875 34.081875 73.7559375 60.834375 117.920625 79.5140625C413.33 745.134375 461.9028125 754.935 512 754.935s98.67-9.800625 144.369375-29.13c44.1646875-18.680625 83.83875001-45.4321875 117.920625-79.5140625s60.834375-73.7559375 79.5140625-117.920625C873.134375 482.67 882.935 434.0971875 882.935 384s-9.800625-98.67-29.13-144.3703125c-18.6796875-44.1646875-45.433125-83.83875001-79.5140625-117.920625zM534.299375 372.65718749999996V665.9953125c0 13.3828125-10.84875001 24.230625-24.23062499 24.230625s-24.230625-10.8478125-24.23062501-24.230625V425.5875c-9.15 8.2734375-23.2621875 8.3925-32.563125-0.09375001-9.8840625-9.0215625-10.584375-24.346875-1.56375001-34.23187499l34.12687501-37.3940625v-42.9796875c0-13.381875 10.84875001-24.230625 24.23062499-24.230625 10.4071875 0 19.2796875 6.5634375 22.71093751 15.774375L637.2321875 187.97812499999998c4.78125001-5.23874999 11.330625-7.8965625 17.904375-7.8965625 5.8303125 0 11.68125001 2.0925 16.3275 6.3328125 9.8840625 9.0215625 10.5853125 24.346875 1.56375 34.23187501L534.299375 372.65718749999996z"  horiz-adv-x="1024" />

    
    <glyph glyph-name="search_location" unicode="&#59443;" d="M763.996 720.431C697.152 787.892 607.65 825.046 511.972 825.046c-94.937 0-184.416-37.128-251.982-104.574-67.381-67.501-104.49-156.98-104.49-251.953 0-95.19 36.813-184.349 103.676-251.144l204.753-251.578c11.815-14.517 29.326-22.843 48.043-22.843s36.228 8.326 48.042 22.843l204.784 251.617C831.679 284.792 868.5 373.938 868.5 468.519c0 95.682-37.116 185.144-104.504 251.912z m-32.791-470.532a32.527 32.527 0 0 1-2.196-2.435L523.773-4.707c-3.973-4.882-9.099-5.611-11.801-5.611s-7.828 0.729-11.801 5.611L294.947 247.449a32.413 32.413 0 0 1-2.286 2.525c-58.317 58.012-90.434 135.627-90.434 218.545 0 82.508 32.258 160.262 90.804 218.912 58.715 58.61 136.469 90.888 218.941 90.888 83.151 0 160.892-32.263 218.901-90.848l0.163-0.163c58.512-57.934 90.736-135.635 90.736-218.788 0-82.37-32.168-160.014-90.567-218.621zM518.621 636.39c-87.189 0-158.123-70.933-158.123-158.123 0-87.189 70.934-158.123 158.123-158.123 87.19 0 158.123 70.934 158.123 158.123S605.811 636.39 518.621 636.39z m0-269.519c-61.423 0-111.395 49.972-111.395 111.395 0 61.424 49.972 111.395 111.395 111.395 61.424 0 111.396-49.972 111.396-111.395 0-61.423-49.972-111.395-111.396-111.395z"  horiz-adv-x="1024" />

    
    <glyph glyph-name="star_hollow1" unicode="&#59196;" d="M513.845 765.13l107.497-230.152 10.389-22.243 24.262-3.75 242.205-37.439L721.15 290.632l-16.229-16.583 3.69-22.907 41.127-255.267-215.06 119.256-22.212 12.317-22.257-12.237-215.474-118.464 42.052 255.085 3.775 22.9-16.176 16.643-176.473 181.573 242.708 36.522 24.276 3.653 10.478 22.2 108.47 229.807m0.068 65.249c-12.34 0-23.48-7.027-28.793-18.339L363.777 554.958 93.842 514.339c-11.826-1.714-21.595-9.94-25.537-21.251-3.942-11.312-1.028-23.823 7.37-32.393L271.4 259.316l-46.789-283.818c-2.058-11.997 3.085-24.166 13.025-31.192 5.467-3.864 11.919-5.811 18.387-5.811a31.967 31.967 0 0 1 15.377 3.926l240.97 132.482 240.457-133.339c4.799-2.571 10.112-3.942 15.425-3.942h0.685c17.653 0 31.878 14.225 31.878 31.878 0 3.942-0.686 7.712-2.056 11.312L754.027 258.46l196.239 200.523c8.398 8.57 11.311 21.08 7.541 32.391-3.771 11.312-13.54 19.539-25.366 21.424L663.02 554.444 542.705 812.039c-5.313 11.141-16.452 18.34-28.792 18.34z"  horiz-adv-x="1024" />

    
    <glyph glyph-name="iconfont_star" unicode="&#58919;" d="M957.806 491.373c-3.771 11.312-13.539 19.539-25.366 21.424l-269.421 41.646L542.705 812.04c-5.313 11.141-16.452 18.339-28.792 18.339s-23.48-7.027-28.793-18.339L363.777 554.9580000000001 93.842 514.3389999999999c-11.826-1.714-21.595-9.94-25.537-21.251-3.942-11.312-1.028-23.823 7.37-32.393L271.4 259.31600000000003l-46.789-283.818c-2.057-11.997 3.085-24.166 13.025-31.193 9.941-7.027 23.138-7.712 33.764-1.885l240.97 132.482 240.457-133.339c4.799-2.571 10.112-3.942 15.425-3.942h0.685c17.653 0 31.879 14.225 31.879 31.878 0 3.942-0.686 7.712-2.056 11.311l-44.733 277.648 196.239 200.523c8.397 8.571 11.31 21.081 7.54 32.392z"  horiz-adv-x="1024" />

    
    <glyph glyph-name="list_location" unicode="&#59460;" d="M534.032-41.219l216.241 265.694c0.203 0.25 0.419 0.489 0.646 0.717 66.166 66.401 102.615 154.314 102.615 247.73 0 94.232-36.574 182.345-102.898 248.014-65.79 66.441-153.903 103.016-248.132 103.016-93.518 0-181.572-36.574-248.073-102.957-66.323-66.441-102.898-154.496-102.898-248.073 0-93.999 36.443-181.965 102.539-247.716 0.239-0.237 0.465-0.487 0.678-0.748l216.227-265.676c16.268-19.988 46.789-19.988 63.055-0.001z m-24.521 666.397c78.314 0 141.986-63.699 141.986-141.986s-63.672-141.986-141.986-141.986c-78.286 0-141.986 63.699-141.986 141.986s63.7 141.986 141.986 141.986z"  horiz-adv-x="1024" />

    
    <glyph glyph-name="map_pin" unicode="&#59462;" d="M764.037 720.431C697.193 787.892 607.691 825.046 512.013 825.046c-94.937 0-184.416-37.128-251.982-104.574-67.381-67.501-104.49-156.98-104.49-251.953 0-95.19 36.813-184.349 103.676-251.144L463.97-34.203c11.815-14.517 29.326-22.843 48.043-22.843s36.228 8.326 48.042 22.843L764.84 217.413c66.88 67.378 103.701 156.524 103.701 251.105 0 95.683-37.116 185.145-104.504 251.913z"  horiz-adv-x="1024" />

    
    <glyph glyph-name="tab_viewhouse_light" unicode="&#59466;" d="M803.065 752.77l-60.711 0.108-29.099-0.043-9.738 0.001v34.673c0 11.346-9.23 20.576-20.577 20.576-11.346 0-20.576-9.231-20.576-20.576v-34.667l-312.068 0.041v34.626c0 11.346-9.23 20.576-20.577 20.576-11.346 0-20.576-9.231-20.576-20.576v-34.621l-83.467 0.011c-45.273 0-82.105-36.745-82.105-81.912v-621.073l0.099-0.911c2.272-43.533 38.243-77.568 81.898-77.568l577.498 0.129c43.346 2.368 77.363 38.529 77.363 82.321V670.448c0 43.736-33.98 79.888-77.364 82.322z m35.608-699.359c0-21.801-18.557-40.22-40.521-40.22H225.827c-22.344 0-40.521 18.042-40.521 40.22v617.49c0 21.79 18.557 40.198 40.521 40.198h68.586c0.189 0.061 0.4 0.102 0.634 0.123l0.136 0.006 13.96-0.003v-49.927c0-11.346 9.23-20.576 20.576-20.576s20.577 9.23 20.577 20.576v49.916l312.068-0.08v-49.835c0-11.346 9.23-20.576 20.576-20.576s20.577 9.23 20.577 20.576v49.825l94.721-0.024c22.295 0 40.435-18.033 40.435-40.198v-617.491zM493.158 231.668H310.015c-11.784 0-21.74-9.837-21.74-21.481 0-11.845 9.752-21.481 21.74-21.481h183.143c11.784 0 21.739 9.837 21.739 21.481 0 11.845-9.752 21.481-21.739 21.481zM713.813 454.739H310.144c-11.854 0-21.869-9.837-21.869-21.481 0-11.845 9.811-21.481 21.869-21.481h403.669c11.877 0 21.912 9.837 21.912 21.481 0 11.844-9.829 21.481-21.912 21.481z"  horiz-adv-x="1024" />

    
    <glyph glyph-name="detail_gas_stove" unicode="&#59469;" d="M795.824 832H228.175c-59.99 0-108.794-48.804-108.794-108.794v-678.412c0-59.989 48.804-108.794 108.794-108.794h567.649c59.99 0 108.795 48.805 108.795 108.794V723.206C904.619 783.196 855.814 832 795.824 832z m57.348-787.206c0-31.621-25.726-57.347-57.347-57.347h-567.65c-31.621 0-57.347 25.726-57.347 57.347v100.1h682.344v-100.1z m0 148.194H170.827V723.206c0 31.621 25.726 57.347 57.347 57.347h567.649c31.621 0 57.347-25.726 57.347-57.347v-530.218zM514.551 66.171m-31.622 0a31.622 31.622 0 1 1 63.244 0 31.622 31.622 0 1 1-63.244 0ZM739.865 524.484H720.87c-11.33 96.25-87.762 172.564-184.068 183.714v19.35c0 13.641-11.161 24.802-24.802 24.802h-0.001c-13.641 0-24.802-11.161-24.802-24.802v-19.442c-95.928-11.48-171.967-87.638-183.266-183.622h-19.797c-13.642 0-24.803-11.161-24.803-24.802s11.161-24.802 24.803-24.802h19.797c11.299-95.983 87.337-172.142 183.266-183.622v-19.442c0-13.641 11.161-24.802 24.802-24.802H512c13.641 0 24.802 11.161 24.802 24.802v19.35c96.306 11.15 172.738 87.463 184.068 183.714h18.995c13.642 0 24.802 11.161 24.802 24.802s-11.16 24.802-24.802 24.802zM536.802 340.519v48.366c0 13.641-11.161 24.802-24.802 24.802h-0.001c-13.641 0-24.802-11.161-24.802-24.802v-48.236c-68.867 10.828-123.238 65.307-133.895 134.23h47.901c13.641 0 24.802 11.161 24.802 24.802s-11.161 24.802-24.802 24.802h-47.901c10.658 68.923 65.029 123.403 133.895 134.23v-48.235c0-13.641 11.161-24.802 24.802-24.802H512c13.641 0 24.802 11.161 24.802 24.802v48.366c69.247-10.529 123.998-65.169 134.698-134.36h-48.703c-13.642 0-24.802-11.161-24.802-24.802s11.16-24.802 24.802-24.802H671.5c-10.7-69.191-65.451-123.832-134.698-134.361z"  horiz-adv-x="1024" />

    
    <glyph glyph-name="detail_doorbell" unicode="&#59470;" d="M709.815 685.424c20.166-1.63 38.805-10.752 52.483-25.685 12.888-14.072 20.326-32.359 20.945-51.49 0.362-11.335 9.542-20.696 20.901-21.312l0.254-0.013c0.324-0.014 0.648-0.021 0.971-0.021 5.84 0 11.309 2.242 15.488 6.37a22.205 22.205 0 0 1 6.581 16.399 123.75 123.75 0 0 1-6.27 35.428c-5.507 16.584-14.326 31.573-26.213 44.552-21.271 23.225-50.287 37.373-81.703 39.835a22.126 22.126 0 0 1-16.842-5.93 22.17 22.17 0 0 1-6.96-16.491 22.095 22.095 0 0 1 5.791-14.534 22.133 22.133 0 0 1 14.574-7.108zM907.872 688.812c-8.962 26.255-23.082 50.022-41.968 70.64-19.468 21.258-42.678 37.742-68.984 48.996-20.44 8.744-42.01 14.008-64.109 15.646a21.585 21.585 0 0 1-16.399-5.835 21.73 21.73 0 0 1-6.788-16.134 21.64 21.64 0 0 1 5.7-14.248c3.768-4.114 8.881-6.591 14.398-6.974a157.738 157.738 0 0 0 50.748-12.127c20.622-8.733 38.785-21.574 53.984-38.167 14.86-16.228 25.91-34.983 32.842-55.746a157.648 157.648 0 0 0 8.113-49.553c0.03-11.445 9.008-20.896 20.438-21.516l0.257-0.012c0.318-0.014 0.636-0.021 0.951-0.021 5.632 0 10.929 2.138 15.004 6.076 4.289 4.142 6.627 9.701 6.583 15.654a200.424 200.424 0 0 1-10.77 63.321zM319.84 720.806a123.698 123.698 0 0 1-35.429-6.269c-16.584-5.507-31.573-14.327-44.552-26.213-23.226-21.272-37.373-50.289-39.836-81.703a22.113 22.113 0 0 1 5.93-16.842 22.165 22.165 0 0 1 16.491-6.959 22.083 22.083 0 0 1 14.534 5.791 22.112 22.112 0 0 1 7.109 14.573c1.63 20.166 10.752 38.805 25.685 52.481 14.072 12.889 32.359 20.328 51.49 20.946 11.335 0.363 20.696 9.542 21.312 20.902l0.012 0.253c0.263 6.202-1.992 12.048-6.349 16.46-4.3 4.36-10.287 6.764-16.397 6.58zM198.903 727.822c16.227 14.86 34.982 25.91 55.745 32.842a157.654 157.654 0 0 0 49.554 8.113c11.444 0.03 20.895 9.007 21.516 20.439l0.011 0.256c0.255 5.984-1.895 11.65-6.054 15.955-4.104 4.249-9.598 6.583-15.488 6.583h-0.166a200.36 200.36 0 0 1-63.32-10.769c-26.258-8.963-50.024-23.083-70.641-41.968-21.257-19.468-37.741-42.678-48.995-68.984-8.745-20.441-14.009-42.011-15.647-64.11a21.604 21.604 0 0 1 5.837-16.398 21.724 21.724 0 0 1 16.133-6.789 21.642 21.642 0 0 1 14.248 5.7c4.113 3.768 6.591 8.881 6.975 14.398a157.71 157.71 0 0 0 12.126 50.748c8.732 20.623 21.574 38.787 38.166 53.984zM765.143 247.789V447.223c0 67.635-26.51 131.219-74.647 179.041-48.132 47.816-112.127 74.15-180.197 74.15-68.05 0-132.03-26.333-180.156-74.15-48.134-47.824-74.642-111.408-74.642-179.04V247.79l-90.686-180.166c-2.572-5.11-2.316-11.068 0.686-15.939 3.001-4.87 8.207-7.778 13.928-7.778H384.51c13.07-58.13 65.576-100.061 125.789-100.061 60.239 0 112.766 41.931 125.836 100.061h205.04c5.72 0 10.927 2.907 13.929 7.777 3.001 4.87 3.258 10.828 0.687 15.937l-90.648 180.168z m-176.17-203.883c-12.835-30.764-43.122-51.146-76.678-51.146-33.525 0-63.79 20.381-76.623 51.146h153.301z m-78.674 610.018c112.375 0 203.798-91.408 203.798-203.765v-207.475l75.666-151.373H230.838l75.395 150.738 0.316 0.633V450.159c0 112.357 91.401 203.765 203.75 203.765z"  horiz-adv-x="1024" />

    
    <glyph glyph-name="detail_storeark" unicode="&#59471;" d="M844.308 759.093H179.692c-50.703 0-92.188-41.484-92.188-92.188v-509.259c0-50.703 41.485-92.188 92.188-92.188h71.823v-27.117c0-14.09 11.422-25.511 25.511-25.511s25.511 11.421 25.511 25.511v27.117h418.926v-31.039c0-14.09 11.422-25.51 25.511-25.51s25.511 11.421 25.511 25.51v31.039h71.823c50.703 0 92.188 41.485 92.188 92.188V666.905c0 50.703-41.485 92.188-92.188 92.188zM186.17 710.19h651.66c25.655 0 46.645-20.99 46.645-46.645v-219.047h-744.95V663.546c0 25.654 20.99 46.644 46.645 46.644z m651.66-595.83H186.17c-25.655 0-46.645 20.99-46.645 46.645V392.101h744.949v-231.097c0.001-25.654-20.989-46.644-46.644-46.644zM478.041 546.065h65.75c14.09 0 25.511 11.422 25.511 25.511s-11.421 25.511-25.511 25.511h-65.75c-14.089 0-25.511-11.422-25.511-25.511s11.422-25.511 25.511-25.511zM543.791 273.797h-65.75c-14.089 0-25.511-11.421-25.511-25.51s11.422-25.51 25.511-25.51h65.75c14.09 0 25.511 11.421 25.511 25.51s-11.421 25.51-25.511 25.51z"  horiz-adv-x="1024" />

    
    <glyph glyph-name="detail_induction_cooker" unicode="&#59472;" d="M795.824 832h-567.65c-59.99 0-108.794-48.804-108.794-108.794v-678.412C119.38-15.195 168.184-64 228.174-64h567.65c59.99 0 108.795 48.805 108.795 108.794V723.206C904.619 783.196 855.814 832 795.824 832zM170.827 144.894h682.344v-100.1c0-31.621-25.726-57.347-57.347-57.347h-567.65c-31.621 0-57.347 25.726-57.347 57.347v100.1z m57.348 635.66h567.65c31.621 0 57.347-25.726 57.347-57.347v-530.218H170.827V723.206c0 31.622 25.727 57.348 57.348 57.348zM512 250.014c131.561 0 238.592 107.032 238.592 238.593 0 131.56-107.032 238.592-238.592 238.592S273.407 620.167 273.407 488.607c0-131.561 107.032-238.593 238.593-238.593z m0 428.251c104.577 0 189.657-85.08 189.657-189.658 0-104.578-85.08-189.659-189.657-189.659s-189.657 85.081-189.657 189.659c0 104.578 85.08 189.658 189.657 189.658zM632.117 32.916h52.946c14.185 0 25.724 11.539 25.724 25.722 0 14.184-11.54 25.724-25.724 25.724h-52.946c-14.184 0-25.723-11.54-25.723-25.724 0-14.182 11.539-25.722 25.723-25.722zM353.999 32.916h52.946c14.184 0 25.722 11.539 25.722 25.722 0 14.184-11.539 25.724-25.722 25.724h-52.946c-14.185 0-25.724-11.54-25.724-25.724-0.001-14.182 11.539-25.722 25.724-25.722zM492.449 32.916h52.946c14.604 0 26.941 11.78 26.941 25.722 0 13.944-12.337 25.724-26.941 25.724h-52.946c-14.184 0-25.723-11.54-25.723-25.724 0-14.182 11.539-25.722 25.723-25.722z"  horiz-adv-x="1024" />

    
    <glyph glyph-name="detail_broadband" unicode="&#59468;" d="M962.094 464.854c-8.67 50.103-57.205 89.688-136.704 111.509-32.14 52.071-77.115 95.702-130.111 126.214-55.393 31.892-118.572 48.749-182.708 48.749-202.544 0-367.326-164.782-367.326-367.326 0-44.468 7.874-87.871 23.41-129.080-33.847 15.737-54.564 36.14-58.529 57.763-2.222 12.222 0.026 24.542 6.889 37.697 5.993 11.988 1.344 26.363-10.61 32.739l-0.117 0.060c-11.989 5.991-26.375 1.317-32.768-10.666-11.692-22.737-15.632-45.872-11.704-68.782 4.717-25.94 19.483-48.886 43.89-68.2 23.283-18.424 54.889-33.14 93.956-43.747 32.128-52.105 77.108-95.775 130.123-126.316 55.411-31.922 118.618-48.795 182.787-48.795 43.764 0 86.607 7.659 127.34 22.764 39.344 14.589 75.699 35.718 108.058 62.801 64.436 53.933 108.792 128.662 124.958 210.486 28.512 20.644 50.687 42.221 65.91 64.136 20.642 29.675 28.467 59.28 23.256 87.994zM856.196 513.84c33.675-15.484 54.278-35.714 58.197-57.268 2.749-15.393-2.337-32.625-15.108-51.206-5.264-7.537-11.774-15.202-19.393-22.834 0.003 0.492 0.004 0.981 0.004 1.468 0.001 44.747-7.97 88.401-23.7 129.84zM367.174 171.97c57.049 0 117.352 5.443 179.242 16.179 98.293 17.564 192.192 48.33 265.122 86.81-9.738-26.636-23.044-51.888-39.592-75.129-35.024-48.792-82.256-86.765-137.29-109.813 12.82-2.351-52.959-24.221-122.086-24.221-50.068 0-98.012 11.345-142.498 33.72-37.764 18.994-72.173 46.057-99.804 78.451 30.298-3.98 62.867-5.997 96.906-5.997zM512.57 702.204c56.199 0 111.467-14.911 159.827-43.12 46.793-27.295 86.162-66.337 113.86-112.912 1.626-3.87 4.080-7.113 7.156-9.622 23.116-43.62 37.359-97.721 37.359-152.549 0-14.050-0.951-28.291-2.828-42.344-71.731-46.199-177.073-84.295-289.201-104.569-114.961-20.425-223.906-21.409-306.925-2.783-24.505 45.797-37.453 97.539-37.453 149.696 0.001 175.457 142.747 318.203 318.205 318.203z"  horiz-adv-x="1024" />

    
    </font>
</defs>
</svg>
