<?xml version="1.0" encoding="UTF-8" standalone="no"?>
<svg width="24px" height="28px" viewBox="0 0 24 28" version="1.1" xmlns="http://www.w3.org/2000/svg" xmlns:xlink="http://www.w3.org/1999/xlink">
    <!-- Generator: Sketch 46.2 (44496) - http://www.bohemiancoding.com/sketch -->
    <title>pin_district_ic</title>
    <desc>Created with Sketch.</desc>
    <defs></defs>
    <g id="切图" stroke="none" stroke-width="1" fill="none" fill-rule="evenodd">
        <g id="pin_district_ic" transform="translate(-4.000000, -2.000000)">
            <g id="map_pin">
                <polygon id="cover" points="0 32 32 32 32 0 0 0"></polygon>
                <path d="M23.8608219,5.48700938 C21.7719469,3.37888438 18.9750406,2.21779063 15.9850719,2.21779063 C13.0182906,2.21779063 10.2220719,3.37804063 8.11063437,5.48572813 C6.00497812,7.59513438 4.84532187,10.3913531 4.84532187,13.3592906 C4.84532187,16.3339469 5.99572812,19.1201656 8.08522812,21.2075094 L14.4837594,29.0693531 C14.8529781,29.5229781 15.4001969,29.7831969 15.9851031,29.7831969 C16.5699781,29.7831969 17.1171969,29.5229781 17.4864156,29.0693531 L23.8859469,21.2063219 C25.9759469,19.1007594 27.1265719,16.3149156 27.1265719,13.3592906 C27.1265719,10.3691969 25.9667281,7.57354063 23.8608219,5.48700938" id="shape" fill-opacity="0.8" fill="#2DAF01"></path>
            </g>
            <g id="surrounding/community_ic" transform="translate(8.533333, 5.333333)" fill="#FFFFFF">
                <g id="surrounding_community">
                    <path d="M10.827627,7.27491211 L11.8768652,7.27491211 L11.8768652,6.24446777 L10.827627,6.24446777 L10.827627,7.27491211 Z M10.827627,9.65424316 L11.8768652,9.65424316 L11.8768652,8.60509277 L10.827627,8.60509277 L10.827627,9.65424316 Z M10.827627,12.0336328 L11.8768652,12.0336328 L11.8768652,11.0031885 L10.827627,11.0031885 L10.827627,12.0336328 Z M8.56072266,7.27491211 L9.59116699,7.27491211 L9.59116699,6.24446777 L8.56072266,6.24446777 L8.56072266,7.27491211 Z M8.56072266,9.65424316 L9.59116699,9.65424316 L9.59116699,8.60509277 L8.56072266,8.60509277 L8.56072266,9.65424316 Z M8.56072266,12.0336328 L9.59116699,12.0336328 L9.59116699,11.0031885 L8.56072266,11.0031885 L8.56072266,12.0336328 Z M5.39447754,4.87680176 L6.42492187,4.87680176 L6.42492187,3.84635742 L5.39447754,3.84635742 L5.39447754,4.87680176 Z M5.39447754,7.27491211 L6.42492187,7.27491211 L6.42492187,6.24446777 L5.39447754,6.24446777 L5.39447754,7.27491211 Z M5.39447754,9.65424316 L6.42492187,9.65424316 L6.42492187,8.60509277 L5.39447754,8.60509277 L5.39447754,9.65424316 Z M5.39447754,12.0336328 L6.42492187,12.0336328 L6.42492187,11.0031885 L5.39447754,11.0031885 L5.39447754,12.0336328 Z M3.1274707,4.87680176 L4.15791504,4.87680176 L4.15791504,3.84635742 L3.1274707,3.84635742 L3.1274707,4.87680176 Z M3.1274707,7.27491211 L4.15791504,7.27491211 L4.15791504,6.24446777 L3.1274707,6.24446777 L3.1274707,7.27491211 Z M3.1274707,9.65424316 L4.15791504,9.65424316 L4.15791504,8.60509277 L3.1274707,8.60509277 L3.1274707,9.65424316 Z M3.1274707,12.0336328 L4.15791504,12.0336328 L4.15791504,11.0031885 L3.1274707,11.0031885 L3.1274707,12.0336328 Z M12.967002,4.74035156 L10.4540625,3.90588867 C10.3407568,3.79258301 10.1534473,3.79258301 10.0401416,3.90588867 L7.64267578,4.69248047 L7.64267578,3.05003906 C7.64267578,2.94767578 7.61061035,2.85793945 7.5305127,2.80627441 L7.54113281,2.80611328 L5.01975586,1.68172852 C4.90646484,1.5684375 4.72538086,1.5684375 4.61208984,1.68172852 L2.08666992,2.80620117 L2.06471191,2.8063623 C1.98479004,2.85802734 1.9097168,2.94776367 1.9097168,3.05003906 L1.9097168,13.0348535 C1.9097168,13.1950488 2.08488281,13.3451074 2.24506348,13.3451074 L7.39463379,13.3451074 C7.44758789,13.3451074 7.49431641,13.3293896 7.53351562,13.3029053 C7.57976074,13.3293896 7.63183594,13.3451074 7.6847168,13.3451074 L12.8342725,13.3451074 C12.994541,13.3451074 13.0759277,13.1950488 13.0759277,13.0348535 L13.0759277,4.98411621 C13.0759277,4.88182617 13.0470117,4.7920166 12.967002,4.74035156 L12.967002,4.74035156 Z" id="shape"></path>
                    <polygon id="cover" fill-opacity="0" points="0 15 15 15 15 0 0 0"></polygon>
                </g>
            </g>
        </g>
    </g>
</svg>