<?xml version="1.0" encoding="UTF-8" standalone="no"?>
<svg width="23px" height="28px" viewBox="0 0 23 28" version="1.1" xmlns="http://www.w3.org/2000/svg" xmlns:xlink="http://www.w3.org/1999/xlink">
    <!-- Generator: Sketch 46.2 (44496) - http://www.bohemiancoding.com/sketch -->
    <title>pin_metro_ic</title>
    <desc>Created with Sketch.</desc>
    <defs></defs>
    <g id="切图" stroke="none" stroke-width="1" fill="none" fill-rule="evenodd">
        <g id="pin_metro_ic" transform="translate(-5.000000, -2.000000)">
            <g id="map_pin">
                <polygon id="cover" fill-opacity="0" fill="#333333" points="0 32 32 32 32 0 0 0"></polygon>
                <path d="M24.0155,5.26921875 C21.926625,3.16109375 19.1297187,2 16.13975,2 C13.1729687,2 10.37675,3.16025 8.2653125,5.2679375 C6.15965625,7.37734375 5,10.1735625 5,13.1415 C5,16.1161562 6.15040625,18.902375 8.23990625,20.9897187 L14.6384375,28.8515625 C15.0076562,29.3051875 15.554875,29.5654062 16.1397812,29.5654062 C16.7246562,29.5654062 17.271875,29.3051875 17.6410937,28.8515625 L24.040625,20.9885312 C26.130625,18.8829687 27.28125,16.097125 27.28125,13.1415 C27.28125,10.1514062 26.1214062,7.35575 24.0155,5.26921875" id="shape" fill-opacity="0.8" fill="#5267F2"></path>
            </g>
            <g id="surrounding/subway_ic" transform="translate(9.000000, 5.000000)" fill="#FFFFFF">
                <g id="surrounding_metro">
                    <path d="M9.13779393,10.7709479 L8.92737834,10.7709479 L5.19403076,10.7709479 L4.86220607,10.7709479 L3.59389237,12.2824653 C3.38620138,12.5299817 3.01055121,12.5567021 2.7709753,12.3556741 C2.52418174,12.1485897 2.49633099,11.7754768 2.70017386,11.5325464 L3.33990606,10.7701432 C2.56266078,10.7443865 1.940575,10.1035356 1.940575,9.32063535 L2.30148516,3.55192441 C2.38450078,2.8126998 3.4202957,1.38623105 6.99328984,1.38623105 C10.5662703,1.38623105 11.6359988,2.8415748 11.6850809,3.55192441 L12.045991,9.32063535 C12.045991,10.101279 11.4315171,10.7373511 10.6596883,10.7696598 L11.2998261,11.5325464 C11.503669,11.7754768 11.4758183,12.1485897 11.2290247,12.3556741 C10.9894488,12.5567021 10.6137986,12.5299817 10.4061076,12.2824653 L9.13779393,10.7709479 Z M3.52857695,3.69049342 L3.38421562,5.85620046 C3.3445125,6.25757936 3.70613359,6.5781028 4.10241289,6.5781028 L9.88415312,6.5781028 C10.2732137,6.5781028 10.6420672,6.25468092 10.6023641,5.85620046 L10.4580027,3.69049342 C10.4002527,3.28911452 9.95344219,2.96859108 9.59614141,2.96859108 L4.39042461,2.96859108 C4.03963164,2.96859108 3.58053008,3.27757546 3.52857695,3.69049342 Z M8.92500178,8.80833335 C8.92500178,9.24326585 9.27758621,9.59583336 9.71250179,9.59583336 C10.1474174,9.59583336 10.5000018,9.24326585 10.5000018,8.80833335 C10.5000018,8.37340084 10.1474174,8.02083333 9.71250179,8.02083333 C9.27758621,8.02083333 8.92500178,8.37340084 8.92500178,8.80833335 Z M3.53079635,8.8094075 C3.53079635,9.24434 3.88338078,9.59690751 4.31829637,9.59690751 C4.75321196,9.59690751 5.10579638,9.24434 5.10579638,8.8094075 C5.10579638,8.374475 4.75321196,8.02190749 4.31829637,8.02190749 C3.88338078,8.02190749 3.53079635,8.374475 3.53079635,8.8094075 Z" id="shape"></path>
                    <polygon id="cover" fill-opacity="0" points="0 14 14 14 14 0 0 0"></polygon>
                </g>
            </g>
        </g>
    </g>
</svg>