<?xml version="1.0" encoding="UTF-8" standalone="no"?>
<svg width="24px" height="28px" viewBox="0 0 24 28" version="1.1" xmlns="http://www.w3.org/2000/svg" xmlns:xlink="http://www.w3.org/1999/xlink">
    <!-- Generator: Sketch 46.2 (44496) - http://www.bohemiancoding.com/sketch -->
    <title>pin_restaurant_ic</title>
    <desc>Created with Sketch.</desc>
    <defs></defs>
    <g id="切图" stroke="none" stroke-width="1" fill="none" fill-rule="evenodd">
        <g id="pin_restaurant_ic" transform="translate(-4.000000, -2.000000)">
            <g id="map_pin">
                <polygon id="cover" points="0 32 32 32 32 0 0 0"></polygon>
                <path d="M23.8608219,5.48700938 C21.7719469,3.37888438 18.9750406,2.21779063 15.9850719,2.21779063 C13.0182906,2.21779063 10.2220719,3.37804063 8.11063437,5.48572813 C6.00497812,7.59513438 4.84532187,10.3913531 4.84532187,13.3592906 C4.84532187,16.3339469 5.99572812,19.1201656 8.08522812,21.2075094 L14.4837594,29.0693531 C14.8529781,29.5229781 15.4001969,29.7831969 15.9851031,29.7831969 C16.5699781,29.7831969 17.1171969,29.5229781 17.4864156,29.0693531 L23.8859469,21.2063219 C25.9759469,19.1007594 27.1265719,16.3149156 27.1265719,13.3592906 C27.1265719,10.3691969 25.9667281,7.57354063 23.8608219,5.48700938" id="shape" fill-opacity="0.8" fill="#F89219"></path>
            </g>
            <g id="surrounding/food_ic" transform="translate(8.533333, 5.333333)" fill="#FFFFFF">
                <g id="surrounding_food">
                    <path d="M12.9551382,11.6376372 C12.7918081,11.4772222 11.405729,10.3043804 9.93679834,9.07043994 L8.39899072,9.47460498 C9.79384424,11.0806597 11.2634341,12.7654497 11.448312,12.9462407 C11.4487954,12.9468267 11.4493813,12.9474126 11.4505532,12.9479985 C11.475104,12.9788921 11.5013247,13.0087163 11.5304604,13.0371782 C11.9246646,13.4237944 12.5626919,13.4237944 12.9551382,13.0371782 C13.3499282,12.6505474 13.3499282,12.0236821 12.9551382,11.6375493 L12.9551382,11.6376372 Z M13.3364663,2.01450732 C13.3411538,1.92463916 13.3096743,1.83371631 13.2402847,1.76549854 C13.1084341,1.63654834 12.8961782,1.63654834 12.7655874,1.76549854 C12.7591567,1.77124072 7.70560693,6.73830615 7.45251123,6.98555713 C7.19718896,6.77154346 6.96972803,6.58080615 6.78545068,6.42692432 C7.1697085,5.80931689 7.10324854,4.99747119 6.58421045,4.44749561 C6.58421045,4.44749561 4.16307275,2.05240283 4.16248682,2.05183154 C4.03120752,1.92298389 3.81836572,1.92298389 3.68778955,2.05183154 C3.55661279,2.18066455 3.55661279,2.38943408 3.68778955,2.51836963 C3.68778955,2.51895557 3.68894678,2.51895557 3.68894678,2.5195415 C3.68894678,2.5195415 5.1240542,3.93368701 5.12229639,3.93427295 C5.24947412,4.06379443 5.24888818,4.26963428 5.11938135,4.39672412 C4.98868799,4.52507373 4.77712061,4.52565967 4.64585596,4.39798389 L3.21133447,2.98842334 L3.20724756,2.99309619 C3.20666162,2.99309619 3.20666162,2.99183643 3.20607568,2.99135303 C3.07489893,2.86240283 2.86205713,2.86240283 2.73137842,2.99135303 C2.59961572,3.12018604 2.59961572,3.32952686 2.73137842,3.45847705 C2.73137842,3.45847705 2.73255029,3.45906299 2.73255029,3.45963428 L4.16364404,4.87213916 C4.29306299,5.00098682 4.29306299,5.20856982 4.16238428,5.33691943 C4.03237939,5.46459521 3.82246729,5.46528369 3.6906167,5.33984912 C3.6906167,5.33984912 2.24966455,3.93085986 2.24966455,3.93027393 C2.11859033,3.80144092 1.905646,3.80144092 1.77448389,3.93027393 C1.64320459,4.05912158 1.64320459,4.26787646 1.77448389,4.39682666 C1.77448389,4.39682666 3.70123682,6.28345752 4.21608545,6.779146 C4.73102197,7.27483447 5.60275049,7.35124072 6.23141748,6.9722124 C6.38773096,7.15300342 6.58010889,7.37511768 6.7970376,7.62538623 C5.07328271,9.31077686 2.90513818,11.435313 2.7033999,11.6574272 C2.68995264,11.6720464 2.67895166,11.6884087 2.66959131,11.7041118 C2.3354165,12.0931743 2.35355127,12.6757866 2.72727686,13.0419536 C3.10043115,13.4087944 3.69353174,13.4268267 4.08949365,13.0985698 C4.09065088,13.0979839 4.09182275,13.0973979 4.09299463,13.0962261 C4.34150537,12.9078325 6.7487124,10.1307085 8.38319971,8.23354541 C8.90808252,8.60038623 9.63985986,8.5538042 10.1104702,8.09183643 C10.1198159,8.08316455 10.1420376,8.06035693 10.1455532,8.05684131 C11.5444937,6.64552295 13.3389126,3.39950244 13.3389126,2.02152393 C13.3389126,2.01907764 13.3371548,2.01673389 13.3364663,2.01450732 L13.3364663,2.01450732 Z" id="shape"></path>
                    <polygon id="cover" fill-opacity="0" points="0 15 15 15 15 0 0 0"></polygon>
                </g>
            </g>
        </g>
    </g>
</svg>