<?xml version="1.0" encoding="UTF-8" standalone="no"?>
<svg width="24px" height="28px" viewBox="0 0 24 28" version="1.1" xmlns="http://www.w3.org/2000/svg" xmlns:xlink="http://www.w3.org/1999/xlink">
    <!-- Generator: Sketch 46.2 (44496) - http://www.bohemiancoding.com/sketch -->
    <title>pin_medicalcare_ic</title>
    <desc>Created with Sketch.</desc>
    <defs></defs>
    <g id="切图" stroke="none" stroke-width="1" fill="none" fill-rule="evenodd">
        <g id="pin_medicalcare_ic" transform="translate(-4.000000, -2.000000)">
            <g id="map_pin">
                <polygon id="cover" points="0 32 32 32 32 0 0 0"></polygon>
                <path d="M23.8608219,5.48700938 C21.7719469,3.37888438 18.9750406,2.21779063 15.9850719,2.21779063 C13.0182906,2.21779063 10.2220719,3.37804063 8.11063437,5.48572813 C6.00497812,7.59513438 4.84532187,10.3913531 4.84532187,13.3592906 C4.84532187,16.3339469 5.99572812,19.1201656 8.08522812,21.2075094 L14.4837594,29.0693531 C14.8529781,29.5229781 15.4001969,29.7831969 15.9851031,29.7831969 C16.5699781,29.7831969 17.1171969,29.5229781 17.4864156,29.0693531 L23.8859469,21.2063219 C25.9759469,19.1007594 27.1265719,16.3149156 27.1265719,13.3592906 C27.1265719,10.3691969 25.9667281,7.57354063 23.8608219,5.48700938" id="shape" fill-opacity="0.8" fill="#FE008F"></path>
            </g>
            <g id="surrounding/hospital_ic" transform="translate(8.533333, 5.333333)" fill="#FFFFFF">
                <g id="surrounding_hosptoial">
                    <path d="M11.6328794,12.8543013 L10.0576011,12.8543013 L4.94531104,12.8543013 L3.38235205,12.8543013 L2.287396,12.8543013 C1.80490576,12.8543013 1.41371924,12.4719331 1.41371924,12.0001802 L1.41371924,4.86054639 C1.41371924,4.38879346 1.80490576,4.00642529 2.287396,4.00642529 L12.727645,4.00642529 C13.2101353,4.00642529 13.6012192,4.38879346 13.6012192,4.86054639 L13.6012192,12.0001802 C13.6012192,12.4719331 13.2101353,12.8543013 12.727645,12.8543013 L11.6328794,12.8543013 Z M9.66424658,7.84986768 L8.1012876,7.84986768 L8.1012876,6.32205029 L6.91363623,6.32205029 L6.91363623,7.84986768 L5.35069189,7.84986768 L5.35069189,9.01085889 L6.91363623,9.01085889 L6.91363623,10.550644 L8.1012876,10.550644 L8.1012876,9.01085889 L9.66424658,9.01085889 L9.66424658,7.84986768 Z M8.64522803,2.84861279 L6.39446631,2.84861279 L6.39446631,3.61537061 L5.73300146,3.61537061 L5.73300146,3.24536572 L5.73300146,2.08755322 L9.27089209,2.08755322 L9.27089209,3.23648877 L9.27089209,3.61537061 L8.64522803,3.61537061 L8.64522803,2.84861279 Z" id="shape"></path>
                    <polygon id="cover" fill-opacity="0" points="0 15 15 15 15 0 0 0"></polygon>
                </g>
            </g>
        </g>
    </g>
</svg>