<?xml version="1.0" encoding="utf-8"?>
<!-- Generator: Adobe Illustrator 19.1.0, SVG Export Plug-In . SVG Version: 6.00 Build 0)  -->
<svg version="1.1" id="图层_1" xmlns="http://www.w3.org/2000/svg" xmlns:xlink="http://www.w3.org/1999/xlink" x="0px" y="0px"
	 viewBox="-47 170.9 500 500" style="enable-background:new -47 170.9 500 500;" xml:space="preserve">
<style type="text/css">
	.st0{fill:#309DE5;}
</style>
<path class="st0" d="M213.8,628.5l105.6-129.7c0.1-0.1,0.2-0.2,0.3-0.4c32.3-32.4,50.1-75.3,50.1-121c0-46-17.9-89-50.2-121.1
	c-32.1-32.4-75.1-50.3-121.2-50.3c-45.7,0-88.7,17.9-121.1,50.3C44.8,288.8,27,331.8,27,377.5c0,45.9,17.8,88.9,50.1,121
	c0.1,0.1,0.2,0.2,0.3,0.4L183,628.5C190.9,638.3,205.8,638.3,213.8,628.5L213.8,628.5z M201.8,303.1c38.2,0,69.3,31.1,69.3,69.3
	s-31.1,69.3-69.3,69.3c-38.2,0-69.3-31.1-69.3-69.3S163.6,303.1,201.8,303.1L201.8,303.1z"/>
</svg>
