<?xml version="1.0" encoding="UTF-8" standalone="no"?>
<svg width="24px" height="28px" viewBox="0 0 24 28" version="1.1" xmlns="http://www.w3.org/2000/svg" xmlns:xlink="http://www.w3.org/1999/xlink">
    <!-- Generator: Sketch 46.2 (44496) - http://www.bohemiancoding.com/sketch -->
    <title>pin_shopping_ic</title>
    <desc>Created with Sketch.</desc>
    <defs></defs>
    <g id="切图" stroke="none" stroke-width="1" fill="none" fill-rule="evenodd">
        <g id="pin_shopping_ic" transform="translate(-4.000000, -2.000000)">
            <g id="map_pin">
                <polygon id="cover" points="0 32 32 32 32 0 0 0"></polygon>
                <path d="M23.8608219,5.48700938 C21.7719469,3.37888438 18.9750406,2.21779063 15.9850719,2.21779063 C13.0182906,2.21779063 10.2220719,3.37804063 8.11063437,5.48572813 C6.00497812,7.59513438 4.84532187,10.3913531 4.84532187,13.3592906 C4.84532187,16.3339469 5.99572812,19.1201656 8.08522812,21.2075094 L14.4837594,29.0693531 C14.8529781,29.5229781 15.4001969,29.7831969 15.9851031,29.7831969 C16.5699781,29.7831969 17.1171969,29.5229781 17.4864156,29.0693531 L23.8859469,21.2063219 C25.9759469,19.1007594 27.1265719,16.3149156 27.1265719,13.3592906 C27.1265719,10.3691969 25.9667281,7.57354063 23.8608219,5.48700938" id="shape" fill-opacity="0.8" fill="#EC1B24"></path>
            </g>
            <g id="surrounding/shop_ic" transform="translate(8.533333, 5.333333)" fill="#FFFFFF">
                <g id="surrounding_shop">
                    <path d="M7.44078955,10.0625654 C8.24835791,10.0625654 8.90301123,9.42222363 8.90301123,8.63230664 C8.90301123,7.84238965 8.24835791,7.20204785 7.44078955,7.20204785 C6.63322119,7.20204785 5.97856787,7.84238965 5.97856787,8.63230664 C5.97856787,9.42222363 6.63322119,10.0625654 7.44078955,10.0625654 L7.44078955,10.0625654 Z M3.07303564,5.19512402 C3.69571143,3.40641797 5.43925635,2.11783887 7.49277686,2.11783887 C9.54631201,2.11783887 11.2898569,3.40641797 11.9125181,5.19512402 L13.0102134,5.19512402 C13.3253159,5.19512402 13.5551938,5.40431836 13.5551938,5.71022168 L13.1520103,7.58639355 L12.235355,12.3253682 C12.235355,12.6312715 12.023187,12.882624 11.7613755,12.882624 L3.20739111,12.882624 C2.94566748,12.882624 2.73349951,12.6312715 2.73349951,12.3253682 L1.81685889,7.58639355 L1.43044775,5.71022168 C1.43044775,5.40431836 1.69454443,5.19512402 2.00973486,5.19512402 L3.07303564,5.19512402 Z M3.98570654,5.19512402 L10.9998472,5.19512402 C10.4190659,3.86823926 9.06751318,2.94592969 7.49277686,2.94592969 C5.91804053,2.94592969 4.56648779,3.86823926 3.98570654,5.19512402 L3.98570654,5.19512402 Z" id="shape"></path>
                    <polygon id="cover" fill-opacity="0" points="0 15 15 15 15 0 0 0"></polygon>
                </g>
            </g>
        </g>
    </g>
</svg>