<?xml version="1.0" encoding="UTF-8" standalone="no"?>
<svg width="24px" height="28px" viewBox="0 0 24 28" version="1.1" xmlns="http://www.w3.org/2000/svg" xmlns:xlink="http://www.w3.org/1999/xlink">
    <!-- Generator: Sketch 46.2 (44496) - http://www.bohemiancoding.com/sketch -->
    <title>pin_bank_ic</title>
    <desc>Created with Sketch.</desc>
    <defs></defs>
    <g id="切图" stroke="none" stroke-width="1" fill="none" fill-rule="evenodd">
        <g id="pin_bank_ic" transform="translate(-4.000000, -2.000000)">
            <g id="map_pin">
                <polygon id="cover" points="0 32 32 32 32 0 0 0"></polygon>
                <path d="M23.8608219,5.48700938 C21.7719469,3.37888438 18.9750406,2.21779063 15.9850719,2.21779063 C13.0182906,2.21779063 10.2220719,3.37804063 8.11063437,5.48572813 C6.00497812,7.59513438 4.84532187,10.3913531 4.84532187,13.3592906 C4.84532187,16.3339469 5.99572812,19.1201656 8.08522812,21.2075094 L14.4837594,29.0693531 C14.8529781,29.5229781 15.4001969,29.7831969 15.9851031,29.7831969 C16.5699781,29.7831969 17.1171969,29.5229781 17.4864156,29.0693531 L23.8859469,21.2063219 C25.9759469,19.1007594 27.1265719,16.3149156 27.1265719,13.3592906 C27.1265719,10.3691969 25.9667281,7.57354063 23.8608219,5.48700938" id="shape" fill-opacity="0.8" fill="#A53AF1"></path>
            </g>
            <g id="surrounding/community_ic-copy" transform="translate(8.533333, 5.333333)" fill="#FFFFFF">
                <g id="surrounding_bank">
                    <path d="M1.80041016,13.1588379 L13.1224072,13.1588379 L13.1224072,11.9430029 L1.80041016,11.9430029 L1.80041016,13.1588379 Z M7.96302246,11.2507031 L7.96302246,7.84139648 L7.96302246,7.07964844 L6.81213867,7.07964844 L6.81213867,7.84139648 L6.81213867,11.2507031 L7.96302246,11.2507031 Z M13.375459,5.78094727 C13.1186572,5.61213867 7.57212891,1.60839844 7.57212891,1.60839844 C7.57212891,1.60839844 1.89908203,5.61213867 1.62528809,5.78094727 C1.35159668,5.94965332 1.3344873,6.20289551 1.62528809,6.32109375 L13.3706543,6.32109375 C13.6443457,6.20289551 13.6320557,5.94965332 13.375459,5.78094727 L13.375459,5.78094727 Z M7.58270508,5.20108887 C7.14799805,5.20108887 6.79561523,4.8534375 6.79561523,4.42456055 C6.79561523,3.99568359 7.14799805,3.64803223 7.58270508,3.64803223 C8.01739746,3.64803223 8.36976562,3.99578613 8.36976562,4.42456055 C8.36976562,4.8534375 8.01739746,5.20108887 7.58270508,5.20108887 L7.58270508,5.20108887 Z M11.8117676,11.2507031 L11.8117676,7.84139648 L11.8117676,7.07964844 L10.6609863,7.07964844 L10.6609863,7.84139648 L10.6609863,7.83647461 L10.6609863,11.2507031 L11.8117676,11.2507031 Z M2.9634082,7.84139648 L2.9634082,11.2507031 L4.11418945,11.2507031 L4.11418945,7.84139648 L4.11418945,7.07964844 L2.9634082,7.07964844 L2.9634082,7.84139648 Z" id="shape"></path>
                    <polygon id="cover" fill-opacity="0" points="0 15 15 15 15 0 0 0"></polygon>
                </g>
            </g>
        </g>
    </g>
</svg>