<?xml version="1.0" encoding="UTF-8" standalone="no"?>
<svg width="24px" height="28px" viewBox="0 0 24 28" version="1.1" xmlns="http://www.w3.org/2000/svg" xmlns:xlink="http://www.w3.org/1999/xlink">
    <!-- Generator: Sketch 46.2 (44496) - http://www.bohemiancoding.com/sketch -->
    <title>pin_bus_ic</title>
    <desc>Created with Sketch.</desc>
    <defs></defs>
    <g id="切图" stroke="none" stroke-width="1" fill="none" fill-rule="evenodd">
        <g id="pin_bus_ic" transform="translate(-4.000000, -2.000000)">
            <g id="map_pin">
                <polygon id="cover" points="0 32 32 32 32 0 0 0"></polygon>
                <path d="M23.8608219,5.48700938 C21.7719469,3.37888438 18.9750406,2.21779063 15.9850719,2.21779063 C13.0182906,2.21779063 10.2220719,3.37804063 8.11063437,5.48572813 C6.00497812,7.59513438 4.84532187,10.3913531 4.84532187,13.3592906 C4.84532187,16.3339469 5.99572812,19.1201656 8.08522812,21.2075094 L14.4837594,29.0693531 C14.8529781,29.5229781 15.4001969,29.7831969 15.9851031,29.7831969 C16.5699781,29.7831969 17.1171969,29.5229781 17.4864156,29.0693531 L23.8859469,21.2063219 C25.9759469,19.1007594 27.1265719,16.3149156 27.1265719,13.3592906 C27.1265719,10.3691969 25.9667281,7.57354063 23.8608219,5.48700938" id="shape" fill-opacity="0.8" fill="#0077BE"></path>
            </g>
            <g id="surrounding/bus_ic" transform="translate(8.533333, 5.333333)" fill="#FFFFFF">
                <g id="bus_ic">
                    <path d="M3.53160645,7.18144043 L11.4540234,7.18144043 L11.4540234,3.98912109 L3.53160645,3.98912109 L3.53160645,7.18144043 Z M10.4637305,11.011333 C9.93558105,11.011333 9.47342285,10.5643213 9.47342285,10.0540869 C9.47342285,9.54383789 9.93558105,9.09681152 10.4637305,9.09681152 C10.9918799,9.09681152 11.4540234,9.54383789 11.4540234,10.0540869 C11.4540234,10.5643213 10.9918799,11.011333 10.4637305,11.011333 L10.4637305,11.011333 Z M4.52191406,11.011333 C3.99376465,11.011333 3.53160645,10.5643213 3.53160645,10.0540869 C3.53160645,9.54383789 3.99376465,9.09681152 4.52191406,9.09681152 C5.05006348,9.09681152 5.51220703,9.54383789 5.51220703,10.0540869 C5.51220703,10.5643213 5.05006348,11.011333 4.52191406,11.011333 L4.52191406,11.011333 Z M7.49282227,1.43614746 C4.58793457,1.43614746 2.21121094,1.75495605 2.21121094,3.98912109 L2.21121094,10.3728809 C2.21121094,10.9472461 2.47527832,11.4583301 2.87140137,11.777124 L2.87140137,12.9258545 C2.87140137,13.3087646 3.1354834,13.5643066 3.53160645,13.5643066 L4.19181152,13.5643066 C4.58793457,13.5643066 4.85200195,13.3087646 4.85200195,12.9258545 L4.85200195,12.2873877 L10.1336279,12.2873877 L10.1336279,12.9258545 C10.1336279,13.3087646 10.3976953,13.5643066 10.793833,13.5643066 L11.4540234,13.5643066 C11.8501611,13.5643066 12.1142285,13.3087646 12.1142285,12.9258545 L12.1142285,11.777124 C12.5103662,11.4574805 12.7744336,10.9472461 12.7744336,10.3728809 L12.7744336,3.98912109 C12.7744336,1.75495605 10.3976953,1.43614746 7.49282227,1.43614746 L7.49282227,1.43614746 Z" id="shape"></path>
                    <polygon id="cover" fill-opacity="0" points="0 15 15 15 15 0 0 0"></polygon>
                </g>
            </g>
        </g>
    </g>
</svg>