<?xml version="1.0" encoding="UTF-8" standalone="no"?>
<svg width="24px" height="28px" viewBox="0 0 24 28" version="1.1" xmlns="http://www.w3.org/2000/svg" xmlns:xlink="http://www.w3.org/1999/xlink">
    <!-- Generator: Sketch 46.2 (44496) - http://www.bohemiancoding.com/sketch -->
    <title>pin_school_ic</title>
    <desc>Created with Sketch.</desc>
    <defs></defs>
    <g id="切图" stroke="none" stroke-width="1" fill="none" fill-rule="evenodd">
        <g id="pin_school_ic" transform="translate(-4.000000, -2.000000)">
            <g id="map_pin">
                <polygon id="cover" points="0 32 32 32 32 0 0 0"></polygon>
                <path d="M23.8608219,5.48700938 C21.7719469,3.37888438 18.9750406,2.21779063 15.9850719,2.21779063 C13.0182906,2.21779063 10.2220719,3.37804063 8.11063437,5.48572813 C6.00497812,7.59513438 4.84532187,10.3913531 4.84532187,13.3592906 C4.84532187,16.3339469 5.99572812,19.1201656 8.08522812,21.2075094 L14.4837594,29.0693531 C14.8529781,29.5229781 15.4001969,29.7831969 15.9851031,29.7831969 C16.5699781,29.7831969 17.1171969,29.5229781 17.4864156,29.0693531 L23.8859469,21.2063219 C25.9759469,19.1007594 27.1265719,16.3149156 27.1265719,13.3592906 C27.1265719,10.3691969 25.9667281,7.57354063 23.8608219,5.48700938" id="shape" fill-opacity="0.8" fill="#00ADEE"></path>
            </g>
            <g id="surrounding/school_ic" transform="translate(8.533333, 5.333333)" fill="#FFFFFF">
                <g id="surrounding_school">
                    <path d="M7.21519922,9.47419629 C7.58558496,9.62706738 7.50866602,9.62809277 7.87606348,9.47637891 L11.7149355,7.96823438 L11.7149355,10.653542 C11.7149355,10.8578291 11.5797305,11.0687959 11.4003311,11.2392012 C8.9764541,12.7925508 4.60645898,11.8898994 3.75331934,11.3364229 C3.45063867,11.1240205 3.47184961,10.8450703 3.47184961,10.653542 L3.47184961,9.40690137 L3.47184961,8.02884961 L7.21519922,9.47419629 Z M13.7800957,5.34074707 C14.1504814,5.49369141 14.1528691,5.74053223 13.7854863,5.89223145 L7.88874316,8.20327148 C7.52128711,8.35485352 7.59902637,8.35395996 7.22862598,8.20101563 L4.13951953,7.00612793 C4.11627246,7.0167041 3.24130664,6.67426758 2.62599902,6.42068848 L1.20554004,5.87129883 C0.835154297,5.71842773 0.832766602,5.47152832 1.20014941,5.3198877 L7.17797168,3.00890625 C7.54542773,2.85720703 7.46768848,2.85821777 7.83807422,3.01116211 L13.7800957,5.34074707 Z" id="shape"></path>
                    <polygon id="cover" fill-opacity="0" points="0 15 15 15 15 0 0 0"></polygon>
                </g>
            </g>
        </g>
    </g>
</svg>